<?xml version="1.0" encoding="utf-8"?>
<!-- Generator: Adobe Illustrator 18.1.1, SVG Export Plug-In . SVG Version: 6.00 Build 0)  -->
<svg version="1.1" id="Layer_1" xmlns="http://www.w3.org/2000/svg" xmlns:xlink="http://www.w3.org/1999/xlink" x="0px" y="0px"
	 viewBox="0 0 1400 900" enable-background="new 0 0 1400 900" xml:space="preserve">
<g>
	<g>
		<path fill="#E0E0E0" d="M326.3,504.9c-0.9,2.7-3.6,5.5-7.6,5.5c-5.9,0-9.3-4.3-9.3-10.6c0-7.2,3.6-11.6,9.1-11.6
			c3.8,0,6.4,1.9,7.3,5.9c0.3,1.6-0.9,3.1-2.6,3.1H316c-1.4,0-2.6,1.2-2.6,2.6c0,0,0,0,0,0c0,5.6,3.1,8.9,6.2,8.9
			c2.4,0,4.5-1,5.9-4.1L326.3,504.9z M316.6,496.4h2.9c1.6,0,2.9-1.4,2.6-3c-0.5-2.6-1.7-4.4-3.6-4.4c-1.8,0-3.5,1.3-4.3,4.1
			C313.5,494.7,314.8,496.4,316.6,496.4z"/>
	</g>
</g>
<g>
	<g>
		<path fill="#E0E0E0" d="M1091.2,585.6c0,1.5,0,2.9,0.1,3.9h-1.1c-0.7-6.6-1.3-8.9-7.2-8.9h-2.5v27c0,3.8,0.8,4.4,4.7,4.6v1
			c-1.6-0.1-4.3-0.1-6.9-0.1c-2.8,0-5.4,0-6.9,0.1v-1c3.9-0.1,4.7-0.7,4.7-4.6v-27h-2.5c-5.9,0-6.6,2.3-7.2,8.9h-1.1
			c0.1-1,0.1-2.4,0.1-3.9c0-1.2-0.1-3.7-0.3-6.1c3.9,0.1,9.4,0.1,13.2,0.1c3.8,0,9.3,0,13.2-0.1
			C1091.3,581.9,1091.2,584.4,1091.2,585.6z"/>
	</g>
</g>
<g>
	<g>
		<g>
			<g>
				<g>
					<g>
						<g>
							<g>

									<rect x="291.9" y="372.2" transform="matrix(1 -5.426545e-003 5.426545e-003 1 -2.1317 1.6131)" fill="#E0E0E0" width="8.5" height="42.9"/>
							</g>
						</g>
					</g>
				</g>
			</g>
		</g>
	</g>
	<g>
		<g>
			<g>
				<g>
					<g>
						<g>
							<g>
								<g>

										<rect x="218.1" y="372.3" transform="matrix(1 -5.415491e-003 5.415491e-003 1 -2.0771 1.2465)" fill="#EBEBEB" width="22.1" height="23.7"/>
								</g>
							</g>
						</g>
					</g>
				</g>
			</g>
		</g>
		<g>
			<g>
				<g>
					<g>
						<g>
							<g>
								<g>

										<rect x="240" y="372.2" transform="matrix(1 -5.420441e-003 5.420441e-003 1 -2.0781 1.3666)" fill="#F5F5F5" width="22.1" height="23.7"/>
								</g>
							</g>
						</g>
					</g>
				</g>
			</g>
		</g>
		<g>
			<g>
				<g>
					<g>
						<g>
							<g>
								<g>
									<g>
										<path fill="#E0E0E0" d="M218.1,378.9c14.7,0.1,29.4,0,44-0.2c0.3,0,0.3-0.5,0-0.5c-14.7-0.1-29.4,0-44,0.3
											C217.8,378.5,217.8,378.9,218.1,378.9L218.1,378.9z"/>
									</g>
								</g>
							</g>
						</g>
					</g>
				</g>
			</g>
		</g>
	</g>
	<g>
		<g>
			<g>
				<g>
					<g>
						<g>
							<g>
								<g>

										<rect x="204.3" y="395.7" transform="matrix(1 -5.424450e-003 5.424450e-003 1 -2.1954 1.223)" fill="#EBEBEB" width="40.1" height="19.3"/>
								</g>
							</g>
						</g>
					</g>
				</g>
			</g>
		</g>
		<g>
			<g>
				<g>
					<g>
						<g>
							<g>
								<g>

										<rect x="244.2" y="395.5" transform="matrix(1 -5.424445e-003 5.424445e-003 1 -2.1936 1.4394)" fill="#F5F5F5" width="40.1" height="19.3"/>
								</g>
							</g>
						</g>
					</g>
				</g>
			</g>
		</g>
		<g>
			<g>
				<g>
					<g>
						<g>
							<g>
								<g>
									<g>
										<path fill="#E0E0E0" d="M204.3,401.1c26.6,0.3,53.3,0,80-0.4c0.3,0,0.3-0.5,0-0.5c-26.6-0.1-53.3-0.1-80,0.5
											C204,400.7,204.1,401.1,204.3,401.1L204.3,401.1z"/>
									</g>
								</g>
							</g>
						</g>
					</g>
				</g>
			</g>
		</g>
	</g>
	<g>
		<g>
			<g>
				<g>
					<g>
						<g>
							<g>
								<rect x="189.3" y="415.1" fill="#E0E0E0" width="155.3" height="6.9"/>
							</g>
						</g>
					</g>
				</g>
			</g>
		</g>
		<g>
			<g>
				<g>
					<g>
						<g>
							<g>
								<rect x="214.7" y="418.4" fill="#E0E0E0" width="6.3" height="18.1"/>
							</g>
						</g>
					</g>
				</g>
			</g>
		</g>
		<g>
			<g>
				<g>
					<g>
						<g>
							<g>
								<rect x="308.8" y="418.4" fill="#E0E0E0" width="6.3" height="18.1"/>
							</g>
						</g>
					</g>
				</g>
			</g>
		</g>
	</g>
	<g>
		<g>
			<g>
				<g>
					<g>
						<g>
							<g>

									<rect x="300.3" y="356.2" transform="matrix(1 -5.426547e-003 5.426547e-003 1 -2.0885 1.6583)" fill="#EBEBEB" width="8.5" height="59"/>
							</g>
						</g>
					</g>
				</g>
			</g>
		</g>
	</g>
	<g>
		<g>
			<g>
				<g>
					<g>
						<g>
							<g>
								<g>

										<rect x="308.8" y="367.2" transform="matrix(1 -5.441680e-003 5.441680e-003 1 -2.1235 1.7225)" fill="#F5F5F5" width="13.2" height="47.8"/>
								</g>
							</g>
						</g>
					</g>
				</g>
			</g>
		</g>
		<g>
			<g>
				<g>
					<g>
						<g>
							<g>
								<g>
									<ellipse fill="#E0E0E0" cx="315.3" cy="376.4" rx="6.6" ry="0.2"/>
								</g>
							</g>
						</g>
					</g>
				</g>
			</g>
		</g>
		<g>
			<g>
				<g>
					<g>
						<g>
							<g>
								<g>
									<ellipse fill="#E0E0E0" cx="315.3" cy="374.3" rx="6.6" ry="0.2"/>
								</g>
							</g>
						</g>
					</g>
				</g>
			</g>
		</g>
		<g>
			<g>
				<g>
					<g>
						<g>
							<g>
								<g>
									<ellipse fill="#E0E0E0" cx="315.3" cy="407.8" rx="6.6" ry="0.2"/>
								</g>
							</g>
						</g>
					</g>
				</g>
			</g>
		</g>
		<g>
			<g>
				<g>
					<g>
						<g>
							<g>
								<g>
									<ellipse fill="#E0E0E0" cx="315.3" cy="405.8" rx="6.6" ry="0.2"/>
								</g>
							</g>
						</g>
					</g>
				</g>
			</g>
		</g>
		<g>
			<g>
				<g>
					<g>
						<g>
							<g>
								<g>
									<ellipse fill="#E0E0E0" cx="315.5" cy="390.6" rx="0.2" ry="10.8"/>
								</g>
							</g>
						</g>
					</g>
				</g>
			</g>
		</g>
	</g>
	<g>
		<g>
			<g>
				<g>
					<g>
						<g>
							<g>
								<rect x="322" y="378.9" fill="#EBEBEB" width="14.4" height="36.1"/>
							</g>
						</g>
					</g>
				</g>
			</g>
		</g>
	</g>
	<g>
		<g>
			<g>
				<g>
					<g>
						<g>
							<ellipse fill="#E0E0E0" cx="304.3" cy="366.2" rx="2.4" ry="2.5"/>
						</g>
					</g>
				</g>
			</g>
		</g>
	</g>
	<g>
		<g>
			<g>
				<g>
					<g>
						<g>
							<rect x="303.5" y="373" fill="#E0E0E0" width="1.5" height="35.1"/>
						</g>
					</g>
				</g>
			</g>
		</g>
	</g>
</g>
<g>
	<g>
		<g>
			<g>
				<g>
					<g>
						<rect x="1186" y="377.3" fill="#E0E0E0" width="91" height="133.5"/>
					</g>
				</g>
			</g>
		</g>
	</g>
	<g>
		<g>
			<g>
				<g>
					<g>
						<rect x="1181.4" y="377.3" fill="#F5F5F5" width="91" height="133.5"/>
					</g>
				</g>
			</g>
		</g>
	</g>
	<g>
		<g>
			<g>
				<g>
					<g>
						<g>
							<rect x="1192.7" y="391.8" fill="#FFFFFF" width="68.4" height="104.6"/>
						</g>
					</g>
				</g>
			</g>
		</g>
		<g>
			<g>
				<g>
					<g>
						<g>
							<g>
								<path fill="#E0E0E0" d="M1261.1,496.4c0,0,0-0.2,0-0.5c0-0.3,0-0.8,0-1.5c0-1.3,0-3.2,0-5.7c0-5,0-12.3-0.1-21.5
									c0-18.4-0.1-44.6-0.1-75.3l0.2,0.2c-20.9,0-44,0-68.4,0h0l0.2-0.3c0,39.5,0,75.8-0.1,104.6l-0.2-0.2
									c20.8,0,37.9,0.1,49.8,0.1c5.9,0,10.6,0,13.8,0.1c1.6,0,2.8,0,3.6,0C1260.7,496.4,1261.1,496.4,1261.1,496.4s-0.4,0-1.2,0
									c-0.8,0-2,0-3.6,0c-3.2,0-7.8,0-13.7,0.1c-11.9,0-29,0.1-49.9,0.1l-0.2,0l0-0.2c0-28.8,0-65.1-0.1-104.6l0-0.3h0.2h0
									c24.3,0,47.5,0,68.4,0h0.2l0,0.2c0,30.8-0.1,57-0.1,75.5c0,9.2,0,16.5-0.1,21.5c0,2.5,0,4.4,0,5.7c0,0.6,0,1.1,0,1.5
									C1261.1,496.2,1261.1,496.4,1261.1,496.4z"/>
							</g>
						</g>
					</g>
				</g>
			</g>
		</g>
	</g>
	<g>
		<g>
			<g>
				<g>
					<g>
						<g>
							<path fill="#E0E0E0" d="M1272.6,377.3c0.1,0-0.6,1-1.6,2.4c-1.1,1.4-2.6,3.4-4.3,5.5c-1.7,2.1-3.3,4-4.5,5.3
								c-1.2,1.3-2,2.1-2,2.1c-0.1,0,0.6-0.9,1.7-2.3c1.2-1.5,2.7-3.3,4.4-5.4c1.7-2,3.2-3.9,4.4-5.4
								C1271.9,378.1,1272.6,377.3,1272.6,377.3z"/>
						</g>
					</g>
				</g>
			</g>
		</g>
	</g>
	<g>
		<g>
			<g>
				<g>
					<g>
						<g>
							<path fill="#FFFFFF" d="M1261.4,496.1c3.4,5.5,7.4,10.5,11.9,15.1"/>
						</g>
					</g>
				</g>
			</g>
		</g>
		<g>
			<g>
				<g>
					<g>
						<g>
							<g>
								<path fill="#E0E0E0" d="M1273.4,511.2c0,0-0.9-0.7-2.1-1.9c-1.2-1.2-2.8-3-4.5-5.1c-1.7-2.1-3-4.1-4-5.6
									c-0.9-1.5-1.4-2.4-1.4-2.5c0.1,0,0.7,0.9,1.7,2.3c1,1.4,2.4,3.4,4.1,5.5c1.6,2.1,3.2,3.9,4.4,5.2
									C1272.7,510.3,1273.4,511.1,1273.4,511.2z"/>
							</g>
						</g>
					</g>
				</g>
			</g>
		</g>
	</g>
	<g>
		<g>
			<g>
				<g>
					<g>
						<g>
							<path fill="#FFFFFF" d="M1181.4,510.8c4-5,7.9-9.9,11.9-14.9"/>
						</g>
					</g>
				</g>
			</g>
		</g>
		<g>
			<g>
				<g>
					<g>
						<g>
							<g>
								<path fill="#E0E0E0" d="M1193.3,495.9c0.1,0.1-2.5,3.5-5.8,7.6c-3.3,4.1-6,7.4-6.2,7.3c-0.1-0.1,2.5-3.5,5.8-7.6
									C1190.4,499,1193.2,495.8,1193.3,495.9z"/>
							</g>
						</g>
					</g>
				</g>
			</g>
		</g>
	</g>
	<g>
		<g>
			<g>
				<g>
					<g>
						<g>
							<path fill="#E0E0E0" d="M1181.4,377.3c0.1-0.1,2.7,3,5.8,7c3.1,4,5.5,7.2,5.4,7.3c-0.1,0.1-2.7-3-5.8-7
								C1183.7,380.7,1181.3,377.4,1181.4,377.3z"/>
						</g>
					</g>
				</g>
			</g>
		</g>
	</g>
	<g>
		<g>
			<g>
				<g>
					<g>
						<rect x="1216.9" y="413" fill="#E0E0E0" width="22.9" height="65.8"/>
					</g>
				</g>
			</g>
		</g>
	</g>
</g>
<g>
	<g>
		<path fill="#E0E0E0" d="M743.4,403.7c1.1,3,2.8,3.7,4,3.7v1.2c-1.6-0.1-4-0.2-6.2-0.2c-3,0-5.7,0.1-7.3,0.2v-1.2
			c2.8-0.1,4.1-0.5,4.1-2.2c0-0.7-0.2-1.6-0.7-2.7l-3.5-9.5h-13.9l-2.4,6.2c-0.8,2-1.1,3.6-1.1,4.8c0,2.5,1.7,3.4,5,3.5v1.2
			c-2.2-0.1-4.6-0.2-6.6-0.2c-1.9,0-3.1,0.1-4.3,0.2v-1.2c1.5-0.3,3.2-1.6,4.5-5.1l13.5-35.2h0.9L743.4,403.7z M726.9,374.5
			l-6.6,17.3h13L726.9,374.5z"/>
	</g>
</g>
<g>
	<g>
		<path fill="#E0E0E0" d="M974.3,770.1c0,5.9,1.8,8.6,7.4,8.6v2.1c-2-0.2-4.1-0.3-6-0.3c-3.8,0-7.3,0.4-10.1,1.4v-8.7
			c-2.4,5.8-7.1,9-13.8,9c-12.1,0-19.9-8.8-19.8-26.6c-0.1-17.9,10.3-26.7,21.9-26.7c4.6,0,9.1,1.6,11.7,5.8v-19.1
			c0-5.9-1.8-8.6-7.4-8.6v-2.1c2,0.2,4.1,0.3,6,0.3c3.8,0,7.3-0.4,10.1-1.4V770.1z M965.6,767.9v-29.2c-1.9-5.3-5.8-7.6-10.8-7.6
			c-7.7,0-13.4,7.9-13.3,24.5c-0.1,15.9,4.5,23.6,13.2,23.6C959.5,779.2,964.1,775.3,965.6,767.9z"/>
	</g>
</g>
<g>
	<g>
		<path fill="#E0E0E0" d="M1000.9,546.8c2.6,2.7,3.3,5.8,3.3,11.8V582c0,2.7,0.7,4,2.6,4c1.5,0,2.6-0.8,3.7-1.8l0.9,1.4
			c-2.3,1.8-4.1,3.1-7.6,3.1c-5.8,0-7.1-3.5-7.1-7.5c-3.6,6-8.8,7.5-12.8,7.5c-5.6,0-10.6-2.8-10.6-9.4c0-6.7,5.1-9.6,13.4-13.1
			c5.6-2.3,9.9-3.8,9.9-7.1v-5.2c0-7.1-3.4-8.5-7.7-8.5c-2.8,0-6.3,0.6-8.2,3c2.1,0.5,3.9,2.4,3.9,5.1c0,2.9-1.9,4.6-4.9,4.6
			c-2.8,0-4.5-2.2-4.5-5.2c0-2.5,1.6-4.4,3.9-6c2.4-1.6,6.3-3.2,11.6-3.2C995.5,543.6,999,544.9,1000.9,546.8z M996.7,562.5
			c-0.9,1.4-2.7,2.2-8,4.8c-3.7,1.8-8.1,4.2-8.1,10.7c0,5.1,2.8,7.4,6.7,7.4c3.3,0,6.6-1.8,9.4-6.4V562.5z"/>
	</g>
</g>
<g>
	<g>
		<path fill="#E0E0E0" d="M356.4,675.3c0,14.2-8,21.4-17.4,21.4c-3.7,0-7.5-1.5-10.3-4.6l-5.6,4.8l-1.3-0.6c0.4-1.4,0.5-3,0.5-4.5
			v-48.5c0-4.7-1.4-6.9-5.9-6.9v-1.7c1.6,0.2,3.3,0.2,4.8,0.2c3,0,5.9-0.3,8.1-1.1v28.5c2.3-5.4,6.9-8.4,12.2-8.4
			C350.1,653.8,356.4,660.9,356.4,675.3z M348.8,675.3c0-12.8-3-19.1-9.5-19.1c-4.1,0-8.3,3.4-9.9,9.8v24.9c2.5,2.6,5.7,3.9,9,3.9
			C345.3,694.8,348.8,688.7,348.8,675.3z"/>
	</g>
</g>
<g>
	<g>
		<path fill="#E0E0E0" d="M214.3,590.8c1.3,2,2.8,3.1,5.3,3.7v1.2c-1.9-0.1-5.2-0.2-7.2-0.2c-1.4,0-3.2,0-6.2,0.2v-1.2
			c1.8-0.1,2.7-0.4,2.7-1.3c0-0.4-0.2-0.9-0.6-1.5l-8.7-13.4c-0.6-1-1.2-1.7-1.7-2.3c-1.6-1.8-4.6-0.7-4.6,1.7v11.5
			c0,4.4,0.8,5,4.9,5.2v1.2c-1.8-0.1-4.9-0.2-7.6-0.2c-3.1,0-6,0.1-7.7,0.2v-1.2c4.1-0.2,4.9-0.8,4.9-5.2v-30.1c0-4.4-0.8-5-4.9-5.2
			v-1.2c1.7,0.1,4.6,0.2,7.7,0.2c2.7,0,5.8-0.1,7.6-0.2v1.2c-4.1,0.2-4.9,0.8-4.9,5.2v10.4c0,1.9,2,3.2,3.8,2.4
			c1.3-0.6,2.3-1.5,3.1-2.5l5.7-7.4c2-2.5,3.1-4.5,3.1-5.8c0-1.4-1.2-2.1-3.7-2.2v-1.2c2.3,0.1,4.8,0.2,6.9,0.2c2,0,3.9-0.1,5.1-0.2
			v1.2c-2.5,0.4-4.8,1.5-7.1,4.4l-8.6,11.1c-0.7,0.9-0.7,2.2-0.1,3.1L214.3,590.8z"/>
	</g>
</g>
<g>
	<g>
		<path fill="#E0E0E0" d="M1183.3,770c-0.9,2.7-3.6,5.5-7.6,5.5c-5.9,0-9.3-4.3-9.3-10.6c0-7.2,3.6-11.6,9.1-11.6
			c3.8,0,6.4,1.9,7.3,5.9c0.3,1.6-0.9,3.1-2.6,3.1h-7.3c-1.4,0-2.6,1.2-2.6,2.6c0,0,0,0,0,0c0,5.6,3.1,8.9,6.2,8.9
			c2.4,0,4.5-1,5.9-4.1L1183.3,770z M1173.6,761.5h2.9c1.6,0,2.9-1.4,2.6-3c-0.5-2.6-1.7-4.4-3.6-4.4c-1.8,0-3.5,1.3-4.3,4.1
			C1170.5,759.8,1171.8,761.5,1173.6,761.5z"/>
	</g>
</g>
<g>
	<g>
		<path fill="#E0E0E0" d="M1125.8,504.4c1.3,2,2.8,3.1,5.3,3.7v1.2c-1.9-0.1-5.2-0.2-7.2-0.2c-1.4,0-3.2,0-6.2,0.2v-1.2
			c1.8-0.1,2.7-0.4,2.7-1.3c0-0.4-0.2-0.9-0.6-1.5l-8.7-13.4c-0.6-1-1.2-1.7-1.7-2.3c-1.6-1.8-4.6-0.7-4.6,1.7v11.5
			c0,4.4,0.8,5,4.9,5.2v1.2c-1.8-0.1-4.9-0.2-7.6-0.2c-3.1,0-6,0.1-7.7,0.2v-1.2c4.1-0.2,4.9-0.8,4.9-5.2v-30.1c0-4.4-0.8-5-4.9-5.2
			v-1.2c1.7,0.1,4.6,0.2,7.7,0.2c2.7,0,5.8-0.1,7.6-0.2v1.2c-4.1,0.2-4.9,0.8-4.9,5.2v10.4c0,1.9,2,3.2,3.8,2.4
			c1.3-0.6,2.3-1.5,3.1-2.5l5.7-7.4c2-2.5,3.1-4.5,3.1-5.8c0-1.4-1.2-2.1-3.7-2.2v-1.2c2.3,0.1,4.8,0.2,6.9,0.2c2,0,3.9-0.1,5.1-0.2
			v1.2c-2.5,0.4-4.8,1.5-7.1,4.4l-8.6,11.1c-0.7,0.9-0.7,2.2-0.1,3.1L1125.8,504.4z"/>
	</g>
</g>
<g>
	<g>
		<g>
			<path fill="#263238" d="M1100,867.7c0,0,1,0,3.1,0c2.1,0,5.3,0,9.6,0v0.1c-41.7,0-198.4,0.1-385.2,0.2
				c-109.9,0-209.4-0.1-281.4-0.1c-36,0-65.1-0.1-85.3-0.1c-10.1,0-17.9,0-23.2-0.1c-2.6,0-4.7,0-6,0c-1.4,0-2.1,0-2.1,0
				s0.7,0,2.1,0c1.4,0,3.4,0,6,0c5.3,0,13.1,0,23.2-0.1c20.1,0,49.3-0.1,85.3-0.1c72,0,171.5-0.1,281.4-0.1
				c186.8,0.1,343.5,0.2,385.2,0.2v0.1c-4.3,0-7.5,0-9.6,0C1101,867.7,1100,867.7,1100,867.7z"/>
		</g>
	</g>
</g>
<g>
	<g>
		<g>
			<path fill="#263238" d="M1087.4,827.7c0,0-5.7-39.5-5.2-62.5c0.5-23,0-48.8,0-48.8h2.6c0,0-1.8,45.6,0.2,73.1
				c1.9,27.5,7,38.2,7,38.2H1087.4"/>
		</g>
		<g>
			<path fill="#38E54D" d="M1104.3,671.9c-0.5-1.3-1.2-2.8-2.4-3.5c-1.7-1.1-3.8-0.6-5.7,0c-7.9,2.8-14.9,17.7-18.1,25.6l10.5,35.8
				C1107.6,712,1110.8,688.7,1104.3,671.9z"/>
		</g>
		<g>
			<g>
				<path fill="#263238" d="M1101.3,669.8c0,0,0,0.2-0.2,0.5c-0.1,0.3-0.3,0.8-0.5,1.3c-0.5,1.1-1.1,2.8-1.9,4.8
					c-1.5,4.1-3.5,9.7-5.3,16.1c-1.8,6.4-3,12.3-3.7,16.6c-0.4,2.1-0.7,3.9-0.8,5.1c-0.1,0.6-0.2,1-0.2,1.4
					c-0.1,0.3-0.1,0.5-0.1,0.5c0,0,0-0.2,0-0.5c0-0.4,0.1-0.8,0.1-1.4c0.1-1.2,0.4-3,0.7-5.1c0.7-4.3,1.8-10.2,3.6-16.7
					c1.8-6.4,3.8-12.1,5.4-16.1c0.8-2,1.5-3.6,2-4.7c0.2-0.5,0.4-0.9,0.6-1.3C1101.2,670,1101.3,669.8,1101.3,669.8z"/>
			</g>
		</g>
		<g>
			<path fill="#455A64" d="M1084,738.4c-9.8-5.5-15.6-15.8-16.2-27.2c-0.4-7.9,2-15.7,4.8-23.2c0.2-0.6,0.5-1.3,1.1-1.7
				c0.8-0.5,1.9-0.1,2.7,0.4c7.1,4.1,11.5,12,13.8,20c1.5,5.3,2.3,10.9,1.6,16.4C1091,728.6,1087.9,734.6,1084,738.4"/>
		</g>
		<g>
			<g>
				<path fill="#263238" d="M1084,738.4c0,0,0-0.2,0-0.5c0-0.4,0-0.8,0-1.4c0-1.2-0.1-2.9-0.1-5c-0.2-4.3-0.7-10.1-1.8-16.5
					c-1.1-6.4-2.4-12.1-3.4-16.3c-0.5-2-0.9-3.7-1.2-4.9c-0.1-0.5-0.2-1-0.3-1.3c-0.1-0.3-0.1-0.5-0.1-0.5c0,0,0.1,0.2,0.2,0.5
					c0.1,0.3,0.2,0.8,0.4,1.3c0.3,1.1,0.8,2.8,1.3,4.9c1.1,4.1,2.4,9.9,3.5,16.3c1.1,6.4,1.6,12.3,1.7,16.6c0.1,2.1,0.1,3.9,0,5.1
					c0,0.6,0,1-0.1,1.4C1084,738.2,1084,738.4,1084,738.4z"/>
			</g>
		</g>
		<g opacity="0.3">
			<g>
				<path fill="#2CB83C" d="M1084,738.4c-9.8-5.5-15.6-15.8-16.2-27.2c-0.4-7.9,2-15.7,4.8-23.2c0.2-0.6,0.5-1.3,1.1-1.7
					c0.8-0.5,1.9-0.1,2.7,0.4c7.1,4.1,11.5,12,13.8,20c1.5,5.3,2.3,10.9,1.6,16.4C1091,728.6,1087.9,734.6,1084,738.4"/>
			</g>
		</g>
		<g>
			<path fill="#38E54D" d="M1095.1,798.8c9.7,2.2,17.6,9.1,27,12.4c6.2,2.2,13.2,3,18.1,7.4c-1.2-3-4-5-6.7-6.8
				c-7.7-4.9-15.9-8.8-24.5-11.8c-4.4-1.5-9.2-2.8-13.6-1.6"/>
		</g>
		<g>
			<path fill="#38E54D" d="M1081.1,807.5c-12.1-0.2-24.9-10.6-36.9-11.3C1056.7,792.1,1074.8,795.5,1081.1,807.5"/>
		</g>
		<g>
			<path fill="#38E54D" d="M1085.8,778.1c6.2-2.2,12.9-2.4,19.4-1.3c6.5,1,12.7,3.1,18.9,5.2c-0.6-4.3-4-7.5-7.2-10.3
				c-2.4-2.1-4.8-4.3-7.6-5.9c-2.8-1.6-5.9-2.7-9.1-2.6c-3.9,0.2-7.5,2.2-10.1,5.1C1087.6,771.3,1086.2,774.2,1085.8,778.1"/>
		</g>
		<g>
			<path fill="#455A64" d="M1060.9,764.6c-7.6-6.6-19.2-5.9-29.2-5.7c15.4,7.5,32,17.7,45.3,28.6
				C1077.4,780.2,1070.6,772.9,1060.9,764.6z"/>
		</g>
		<g opacity="0.3">
			<g>
				<path fill="#2CB83C" d="M1060.9,764.6c-7.6-6.6-19.2-5.9-29.2-5.7c15.4,7.5,32,17.7,45.3,28.6
					C1077.4,780.2,1070.6,772.9,1060.9,764.6z"/>
			</g>
		</g>
		<g>
			<path fill="#38E54D" d="M1089.2,755.5c3.8-2.6,7.7-5.1,11.7-6.9c4-1.8,7.8-4.8,11.6-6.9c5-2.8,9.4-6.6,14-10
				c4.6-3.4,9.7-6.5,15.3-7.4c-4.6-1-9.4-0.4-14,0.8c-4.5,1.3-8.8,3.2-13.1,5.2c-6,2.7-12,5.5-16.9,9.9
				C1093.1,744.5,1088.7,748.9,1089.2,755.5"/>
		</g>
		<g>
			<g>
				<path fill="#263238" d="M1121.8,807.5c0,0-0.1,0-0.4-0.2c-0.3-0.1-0.6-0.3-1.1-0.6c-0.9-0.5-2.2-1.2-3.9-2.1
					c-0.8-0.4-1.7-0.9-2.7-1.4c-1-0.5-2-1-3.1-1.5c-2.2-1-4.7-2-7.5-2.6c-2.7-0.7-5.4-0.8-7.8-0.2c-1.2,0.3-2.3,0.6-3.3,1
					c-1,0.4-1.9,0.9-2.7,1.4c-1.6,1-2.6,2-3.3,2.8c-0.7,0.8-1,1.2-1.1,1.2c0,0,0.1-0.1,0.2-0.4c0.2-0.2,0.4-0.6,0.7-1
					c0.7-0.8,1.7-1.9,3.3-2.9c0.8-0.5,1.7-1,2.7-1.5c1-0.4,2.2-0.8,3.3-1.1c2.4-0.7,5.2-0.5,8,0.2c2.8,0.7,5.3,1.7,7.5,2.7
					c1.1,0.5,2.2,1,3.1,1.5c1,0.5,1.9,1,2.7,1.4c1.6,0.9,2.9,1.6,3.8,2.2c0.4,0.3,0.7,0.5,1,0.6
					C1121.7,807.4,1121.8,807.5,1121.8,807.5z"/>
			</g>
		</g>
		<g>
			<g>
				<path fill="#263238" d="M1072,801.5c0,0,0.3,0.1,0.8,0.2c0.5,0.2,1.2,0.5,2,0.9c1.6,0.8,3.8,2.2,5.8,4.2c2,2,3.5,4.1,4.3,5.7
					c0.4,0.8,0.8,1.5,0.9,2c0.2,0.5,0.3,0.7,0.3,0.8c-0.1,0-0.5-1-1.5-2.6c-0.9-1.6-2.4-3.6-4.4-5.5c-2-1.9-4.1-3.3-5.6-4.2
					C1073,801.9,1072,801.5,1072,801.5z"/>
			</g>
		</g>
		<g>
			<g>
				<path fill="#263238" d="M1045.2,763.9c0,0,0.2,0,0.5,0.2c0.4,0.1,0.9,0.3,1.5,0.5c0.6,0.2,1.4,0.5,2.3,0.9
					c0.9,0.3,1.9,0.8,3,1.3c4.4,2,10.2,5.4,15.8,10.2c2.8,2.4,5.3,4.9,7.4,7.3c2.1,2.4,3.8,4.7,5.2,6.7c1.4,2,2.4,3.6,3.2,4.8
					c0.3,0.5,0.6,1,0.8,1.3c0.2,0.3,0.3,0.5,0.3,0.5c0,0-0.1-0.1-0.3-0.4c-0.2-0.3-0.5-0.7-0.9-1.3c-0.8-1.1-1.8-2.7-3.3-4.7
					c-1.4-2-3.2-4.2-5.3-6.6c-2.1-2.4-4.6-4.8-7.3-7.3c-5.6-4.8-11.3-8.2-15.6-10.2c-1.1-0.5-2-1-2.9-1.4c-0.9-0.4-1.6-0.7-2.3-0.9
					c-0.6-0.2-1.1-0.4-1.4-0.6C1045.4,764,1045.2,764,1045.2,763.9z"/>
			</g>
		</g>
		<g>
			<g>
				<path fill="#263238" d="M1104,771.2c0,0-0.4,0-1-0.1c-0.3-0.1-0.7-0.1-1.1-0.2c-0.4-0.1-0.9-0.1-1.5-0.1c-2.2-0.2-5.4,0-8.3,1.7
					c-1.5,0.8-2.8,1.8-3.8,2.8c-1,1-1.8,2.1-2.4,3c-1.2,1.9-1.6,3.2-1.7,3.2c0,0,0-0.4,0.2-1c0.2-0.6,0.6-1.5,1.2-2.4
					c0.6-1,1.4-2.1,2.4-3.2c1-1.1,2.3-2.2,3.9-3c3.1-1.7,6.4-1.8,8.6-1.6c0.6,0.1,1.1,0.1,1.5,0.2c0.4,0.1,0.8,0.2,1.1,0.3
					C1103.7,771.1,1104,771.2,1104,771.2z"/>
			</g>
		</g>
		<g>
			<g>
				<path fill="#263238" d="M1116.2,733c0,0-0.2,0.1-0.5,0.3c-0.3,0.2-0.8,0.4-1.4,0.7c-1.2,0.6-2.9,1.6-4.9,2.8
					c-2,1.2-4.5,2.8-7,4.6c-2.6,1.9-5.3,4-7.8,6.6c-1.3,1.3-2.4,2.7-3.2,4.2c-0.8,1.5-1.6,3-2.3,4.5c-1.4,2.9-2.5,5.5-3.4,7.8
					c-0.8,2.3-1.3,4.1-1.6,5.5c-0.3,1.3-0.4,2.1-0.5,2c0,0,0-0.2,0-0.5c0-0.4,0.1-0.9,0.3-1.5c0.3-1.3,0.7-3.2,1.5-5.5
					c0.8-2.3,1.9-5,3.3-7.8c0.7-1.4,1.4-2.9,2.2-4.5c0.8-1.6,2-3,3.3-4.3c2.6-2.7,5.3-4.8,7.9-6.7c2.6-1.8,5-3.4,7.1-4.6
					c2.1-1.2,3.8-2.1,5-2.7c0.6-0.3,1-0.5,1.4-0.7C1116,733,1116.2,732.9,1116.2,733z"/>
			</g>
		</g>
		<g>
			<g>
				<path fill="#263238" d="M1082.2,770.1c0,0-0.1-0.4-0.2-1c-0.1-0.8-0.3-1.7-0.5-2.8c-0.5-2.4-1.2-5.7-2.3-9.2
					c-1.1-3.5-2.5-6.6-3.5-8.8c-0.5-1-0.9-1.9-1.2-2.6c-0.3-0.6-0.4-1-0.4-1c0,0,0.2,0.3,0.5,0.9c0.3,0.6,0.8,1.5,1.3,2.6
					c1.1,2.2,2.5,5.3,3.6,8.8c1.1,3.6,1.8,6.9,2.2,9.3c0.2,1.2,0.3,2.2,0.4,2.9C1082.2,769.7,1082.2,770.1,1082.2,770.1z"/>
			</g>
		</g>
		<g>
			<path fill="#38E54D" d="M1081.3,742.2c-0.3-4.6-1.8-9.1-3.9-13.2c-5.9-11.3-16.9-19.6-29.3-22.1c9,13.6,18.1,27.3,27.1,40.9
				l3.5,7.3C1081.1,751.1,1081.6,746.8,1081.3,742.2z"/>
		</g>
	</g>
	<g>
		<g>
			<g>
				<rect x="1057.2" y="822.8" fill="#263238" width="63" height="11.3"/>
			</g>
		</g>
		<g>
			<g>
				<polygon fill="#263238" points="1061.9,831.8 1067.2,866.9 1109.1,866.9 1115.5,831.8 				"/>
			</g>
		</g>
		<g>
			<g>
				<g>
					<path fill="#263238" d="M1120.1,834.1c0,0.1-14.2,0.2-31.7,0.2c-17.5,0-31.7-0.1-31.7-0.2c0-0.1,14.2-0.2,31.7-0.2
						C1105.9,833.9,1120.1,834,1120.1,834.1z"/>
				</g>
			</g>
		</g>
	</g>
</g>
<g>
	<g>
		<g>
			<g>
				<path fill="#2192FF" d="M491,772.3h-84.4c-13,0-23.5-10.6-23.5-23.7l0,0c0-13.1,10.5-23.7,23.5-23.7H491V772.3z"/>
			</g>
		</g>
		<g>
			<g>
				<path fill="#2192FF" d="M656.4,732.6H467.7v-7.9h188.7c1.6,0,2.9,1.3,2.9,2.9v2C659.3,731.3,658,732.6,656.4,732.6z"/>
			</g>
		</g>
		<g>
			<g>
				<path fill="#2192FF" d="M656.4,772.3H467.7v-7.9h188.7c1.6,0,2.9,1.3,2.9,2.9v2C659.3,770.9,658,772.3,656.4,772.3z"/>
			</g>
		</g>
		<g>
			<g>
				<path fill="#F5F5F5" d="M653.6,764.4H489c-8.7,0-15.7-7.1-15.7-15.9l0,0c0-8.8,7-15.9,15.7-15.9h164.5
					C649.2,743.2,649.2,753.8,653.6,764.4z"/>
			</g>
		</g>
		<g opacity="0.3">
			<g>
				<path d="M473.4,772.3h-66.7c-13,0-23.5-10.7-23.5-23.8l0,0c0-13.1,10.5-23.7,23.4-23.7h68.6
					C458.2,735.2,459.4,760.1,473.4,772.3z"/>
			</g>
		</g>
		<g>
			<g>
				<g>
					<path fill="#263238" d="M633.6,750c0,0.2-33.8,0.3-75.4,0.3c-41.7,0-75.4-0.1-75.4-0.3c0-0.2,33.8-0.3,75.4-0.3
						C599.8,749.7,633.6,749.8,633.6,750z"/>
				</g>
			</g>
		</g>
		<g>
			<g>
				<g>
					<path fill="#263238" d="M649.1,757c0,0.2-33.8,0.3-75.4,0.3c-41.7,0-75.4-0.1-75.4-0.3c0-0.2,33.8-0.3,75.4-0.3
						C615.3,756.8,649.1,756.9,649.1,757z"/>
				</g>
			</g>
		</g>
		<g>
			<g>
				<g>
					<path fill="#263238" d="M644.5,740c0,0.2-33.8,0.3-75.4,0.3c-41.7,0-75.4-0.1-75.4-0.3c0-0.2,33.8-0.3,75.4-0.3
						C610.8,739.7,644.5,739.8,644.5,740z"/>
				</g>
			</g>
		</g>
		<g>
			<g>
				<g>
					<path fill="#263238" d="M465.1,768.9c0,0.2-15.8,0.3-35.3,0.3c-19.5,0-35.3-0.1-35.3-0.3c0-0.2,15.8-0.3,35.3-0.3
						C449.3,768.6,465.1,768.8,465.1,768.9z"/>
				</g>
			</g>
		</g>
		<g>
			<g>
				<g>
					<path fill="#263238" d="M465.1,728.7c0,0.2-15.8,0.3-35.3,0.3c-19.5,0-35.3-0.1-35.3-0.3c0-0.2,15.8-0.3,35.3-0.3
						C449.3,728.4,465.1,728.5,465.1,728.7z"/>
				</g>
			</g>
		</g>
	</g>
	<g>
		<g>
			<g>
				<path fill="#2192FF" d="M482.6,866.8H369.3c-14.1,0-25.6-11.5-25.6-25.6v-10c0-14.1,11.5-25.6,25.6-25.6h113.3V866.8z"/>
			</g>
		</g>
		<g>
			<g>
				<path fill="#2192FF" d="M696.4,815.8H452.5v-10.2h243.9c1.6,0,2.9,1.3,2.9,2.9v4.3C699.3,814.4,698,815.8,696.4,815.8z"/>
			</g>
		</g>
		<g>
			<g>
				<path fill="#2192FF" d="M696.4,866.8H452.5v-10.2h243.9c1.6,0,2.9,1.3,2.9,2.9v4.3C699.3,865.5,698,866.8,696.4,866.8z"/>
			</g>
		</g>
		<g>
			<g>
				<path fill="#F5F5F5" d="M691.9,856.6l-211.9,0c-11.1,0-20.2-9.1-20.2-20.4v0c0-11.3,9-20.4,20.2-20.4h211.9
					C686.3,829.4,686.3,843,691.9,856.6z"/>
			</g>
		</g>
		<g opacity="0.4">
			<g>
				<path d="M459.9,866.8h-86.3c-16.5,0-29.9-13.5-29.9-30.3v0c0-17.1,13.7-30.9,30.5-30.9h88C440.3,819,441.9,851.1,459.9,866.8z"
					/>
			</g>
		</g>
		<g>
			<g>
				<g>
					<path fill="#263238" d="M666.2,838.1c0,0.2-43.5,0.3-97.1,0.3c-53.7,0-97.1-0.1-97.1-0.3c0-0.2,43.5-0.3,97.1-0.3
						C622.7,837.8,666.2,837.9,666.2,838.1z"/>
				</g>
			</g>
		</g>
		<g>
			<g>
				<g>
					<path fill="#263238" d="M686.2,847.2c0,0.2-43.5,0.3-97.1,0.3c-53.7,0-97.1-0.1-97.1-0.3c0-0.2,43.5-0.3,97.1-0.3
						C642.7,846.9,686.2,847,686.2,847.2z"/>
				</g>
			</g>
		</g>
		<g>
			<g>
				<g>
					<path fill="#263238" d="M680.3,829.7c0,0.2-43.5,0.3-97.1,0.3c-53.7,0-97.1-0.1-97.1-0.3c0-0.2,43.5-0.3,97.1-0.3
						C636.8,829.4,680.3,829.5,680.3,829.7z"/>
				</g>
			</g>
		</g>
		<g>
			<g>
				<g>
					<path fill="#263238" d="M449.2,862.5c0,0.2-20.4,0.3-45.5,0.3c-25.1,0-45.5-0.1-45.5-0.3c0-0.2,20.4-0.3,45.5-0.3
						C428.9,862.2,449.2,862.3,449.2,862.5z"/>
				</g>
			</g>
		</g>
		<g>
			<g>
				<g>
					<path fill="#263238" d="M449.2,810.7c0,0.2-20.4,0.3-45.5,0.3c-25.1,0-45.5-0.1-45.5-0.3c0-0.2,20.4-0.3,45.5-0.3
						C428.9,810.4,449.2,810.5,449.2,810.7z"/>
				</g>
			</g>
		</g>
	</g>
	<g>
		<g>
			<g>
				<path fill="#455A64" d="M518.7,805.8h-95.6c-9.6,0-17.3-7.8-17.3-17.5l0,0c0-9.7,7.7-17.5,17.3-17.5h95.6V805.8z"/>
			</g>
		</g>
		<g>
			<g>
				<path fill="#455A64" d="M691.7,779.1H494.3v-8.2h197.4c1.7,0,3.1,1.4,3.1,3.1v2.1C694.8,777.7,693.4,779.1,691.7,779.1z"/>
			</g>
		</g>
		<g>
			<g>
				<path fill="#455A64" d="M691.7,805.8H494.3v-8.2h197.4c1.7,0,3.1,1.4,3.1,3.1v2.1C694.8,804.4,693.4,805.8,691.7,805.8z"/>
			</g>
		</g>
		<g>
			<g>
				<path fill="#F5F5F5" d="M688.8,797.6H509.4c-5.1,0-9.1-4.1-9.1-9.3l0,0c0-5.1,4.1-9.3,9.1-9.3h179.4
					C684.2,785.2,684.2,791.4,688.8,797.6z"/>
			</g>
		</g>
		<g opacity="0.3">
			<g>
				<path d="M500.2,805.8H423c-9.5,0-17.2-7.8-17.2-17.4v0c0-9.7,7.8-17.7,17.4-17.7h78.9C484.3,778.5,485.7,796.9,500.2,805.8z"/>
			</g>
		</g>
		<g>
			<g>
				<g>
					<path fill="#263238" d="M667.9,786.9c0,0.2-35.3,0.3-78.9,0.3c-43.6,0-78.9-0.1-78.9-0.3c0-0.2,35.3-0.3,78.9-0.3
						C632.5,786.6,667.9,786.7,667.9,786.9z"/>
				</g>
			</g>
		</g>
		<g>
			<g>
				<g>
					<path fill="#263238" d="M684.1,791.8c0,0.2-35.3,0.3-78.9,0.3c-43.6,0-78.9-0.1-78.9-0.3c0-0.2,35.3-0.3,78.9-0.3
						C648.8,791.6,684.1,791.7,684.1,791.8z"/>
				</g>
			</g>
		</g>
		<g>
			<g>
				<g>
					<path fill="#263238" d="M491.6,802.3c0,0.2-16.5,0.3-36.9,0.3c-20.4,0-36.9-0.1-36.9-0.3c0-0.2,16.5-0.3,36.9-0.3
						C475.1,802.1,491.6,802.2,491.6,802.3z"/>
				</g>
			</g>
		</g>
		<g>
			<g>
				<g>
					<path fill="#263238" d="M491.6,774.9c0,0.2-16.5,0.3-36.9,0.3c-20.4,0-36.9-0.1-36.9-0.3c0-0.2,16.5-0.3,36.9-0.3
						C475.1,774.6,491.6,774.8,491.6,774.9z"/>
				</g>
			</g>
		</g>
		<g>
			<g>
				<g>
					<path fill="#263238" d="M692.4,770.8c0,0.2-60.7,0.3-135.5,0.3c-74.9,0-135.5-0.1-135.5-0.3c0-0.2,60.7-0.3,135.5-0.3
						C631.7,770.5,692.4,770.6,692.4,770.8z"/>
				</g>
			</g>
		</g>
	</g>
	<g>
		<g>
			<polygon fill="#2192FF" points="543.1,740.2 543.1,759.2 549.6,755 556.9,759.2 556.9,740.2 			"/>
		</g>
	</g>
</g>
<g>
	<path fill="#263238" d="M602,622.8c-5.3,0.2-6.3,1-6.3,6.8v39.2c0,5.7,1,6.6,6.3,6.8v1.6c-2.4-0.2-6.3-0.2-9.9-0.2
		c-4.1,0-7.8,0.1-10,0.2v-1.6c5.3-0.2,6.3-1,6.3-6.8v-42.2l-18.8,51h-1.3l-19.6-51.2v41.7c0,5.8,1,7.4,7.1,7.6v1.6
		c-1.9-0.2-5.3-0.2-8-0.2c-2.6,0-5.5,0.1-7.2,0.2v-1.6c5.3-0.2,6.3-1.8,6.3-7.6v-38.3c0-5.7-1-6.6-6.3-6.8v-1.6
		c1.7,0.2,4.6,0.2,7.2,0.2c2.3,0,4.9-0.1,6.7-0.2l17.1,45.8l16.7-45.5h3.7c3.6,0,7.5-0.1,9.9-0.2V622.8z"/>
</g>
<g>
	<path fill="#263238" d="M522.4,699.1c3.6,0,6.7,1.3,6.7,5.4c0,5.2-4.9,11.9-16.1,11.9c-5.8,0-11.6-1.8-11.6-5.3
		c0-2.8,3.6-5.4,7.2-7.1h-0.2c-2,0-5.8-0.5-5.8-4.4c0-2.5,1.7-4.9,7.2-7.4c-3.2-1.3-5.3-3.9-5.3-8.3c0-6.4,4.6-9.2,10.6-9.2
		c1.5,0,2.8,0.2,4.1,0.5c0.4-2.2,1.1-4,2-5.2c0.9-1.2,2.2-1.9,3.9-1.9c2,0,3,1.3,3,3c0,1.6-1.2,2.8-2.8,2.8c-2.1,0-2.7-1.4-3.1-3.7
		c-0.6,0.5-1.1,1.4-1.5,2.8c-0.2,0.7-0.4,1.4-0.6,2.4c3.3,1.2,5.5,3.9,5.5,8.4c0,6.4-4.6,9.2-10.6,9.2c-1.5,0-3-0.2-4.2-0.5
		c-2.6,1.4-4.8,2.8-4.8,4.6c0,1.3,0.8,1.9,2.7,1.9H522.4z M525.2,707.2c0-2.1-0.9-3.2-4.4-3.2h-10.7c-2.5,1.3-3.9,3.7-3.9,5.9
		c0,3.9,4.5,5.6,8.4,5.6C519.5,715.4,525.2,712.8,525.2,707.2z M510,683.9c0,6.2,2,8.2,5.2,8.2c3.2,0,5.2-1.9,5.2-8.2
		c0-6.2-2-8.2-5.2-8.2C512.1,675.7,510,677.6,510,683.9z"/>
</g>
<g>
	<path fill="#263238" d="M930.4,601.9c0,3.7-1.7,7.6-5.9,7.6c-1.3,0-2.4-0.6-3-1.4v3.3c0,1.5,0.9,1.9,2.5,1.9v0.5
		c-0.7,0-2.2-0.1-3.7-0.1c-1.1,0-2.2,0.1-2.8,0.1v-0.5c1.2,0,1.7-0.4,1.7-1.6v-13.1c0-1.6-0.5-2.3-1.9-2.3v-0.5
		c0.5,0.1,1.1,0.1,1.6,0.1c1,0,1.9-0.1,2.7-0.4v2.7c0.8-1.8,2.3-2.8,4.1-2.8C928.4,595.5,930.4,597.7,930.4,601.9z M927.9,602.2
		c0-4.1-1-6-3-6c-1.5,0-2.8,1.1-3.4,3.3v7.8c0.5,1,1.4,1.7,2.7,1.7C927.1,608.9,927.9,605.9,927.9,602.2z"/>
</g>
<g>
	<path fill="#263238" d="M972.3,625.4c1,0.9,1.6,2,1.6,3.3c0,1.6-1.1,2.8-2.8,2.8c-1.6,0-2.9-1.1-2.9-2.8c0-1.5,0.9-2.4,2.2-2.7
		c-0.2-0.6-1.1-1.2-2.6-1.2c-1.6,0-2.7,0.8-3.4,2c-0.8,1.5-0.9,4-0.9,10v1.4h5.6v1.1h-5.6v20.6c0,3.4,2.1,4.3,5.5,4.3v1.1
		c-1.6-0.1-4.8-0.2-8-0.2c-2.4,0-4.9,0.2-6.2,0.2v-1.1c2.9,0,4-0.9,4-3.8v-21.2h-4.2v-1.1h4.2c0-6.2,0.7-9.1,2.7-11.5
		c1.4-1.6,3.6-2.7,6.2-2.7C969.7,624,971.2,624.6,972.3,625.4z"/>
</g>
<g>
	<path fill="#263238" d="M600.6,699.1v0.5c-0.7,0.2-1.5,0.7-2.1,2.3l-6.2,16.1h-0.2c-0.1,0-0.1,0-0.2,0l-6.4-16.7
		c-0.5-1.3-1.3-1.7-1.8-1.7v-0.5c0.7,0.1,1.8,0.1,2.8,0.1c1.4,0,2.6,0,3.4-0.1v0.5c-1.3,0.1-1.9,0.2-1.9,1c0,0.3,0.1,0.7,0.3,1.2
		l4.7,12.7l4.3-11.2c0.3-0.9,0.5-1.6,0.5-2.2c0-1.2-0.8-1.6-2.3-1.6v-0.5c1,0.1,2.1,0.1,3,0.1C599.5,699.2,600.1,699.2,600.6,699.1z
		"/>
</g>
<g>
	<path fill="#263238" d="M560.6,702.1c3.9,0.5,5,2.5,5,4.5c0,2.8-2.2,4.8-5.9,4.8c-0.7,0-2.2-0.1-4.2-0.1c-1.1,0-2.4,0-3,0.1v-0.5
		c1.7-0.1,2-0.3,2-2.1v-12.3c0-1.8-0.3-2.1-2-2.1v-0.5c0.7,0,1.9,0.1,3,0.1c1.5,0,3.1,0,3.7,0c3.4,0,5.2,1.6,5.2,3.9
		C564.3,699.5,563.4,701.2,560.6,702.1L560.6,702.1z M556.7,696.5v5.6h1.6c2.9,0,3.6-1.9,3.6-4c0-2.4-1-3.7-3.4-3.7
		C557.1,694.4,556.7,694.8,556.7,696.5z M563.2,706.5c0-2.5-1.3-4-4.4-4h-2.1v6.3c0,1.7,0.3,2.1,1.8,2.1
		C561.8,710.8,563.2,709.3,563.2,706.5z"/>
</g>
<g>
	<path fill="#E0E0E0" d="M243,820.8c6.9,0.9,8.9,4.4,8.9,8c0,5-4,8.6-10.5,8.6c-1.3,0-3.9-0.1-7.5-0.1c-2.1,0-4.2,0-5.4,0.1v-0.9
		c3-0.1,3.6-0.6,3.6-3.8v-22c0-3.2-0.6-3.7-3.6-3.8v-0.9c1.2,0.1,3.4,0.1,5.3,0.1c2.8,0,5.6-0.1,6.6-0.1c6.1,0,9.2,2.9,9.2,7
		C249.6,816.1,247.9,819.2,243,820.8L243,820.8z M236.1,810.6v10h3c5.2,0,6.4-3.4,6.4-7.2c0-4.4-1.8-6.6-6.1-6.6
		C236.6,806.8,236.1,807.6,236.1,810.6z M247.5,828.6c0-4.5-2.2-7.1-7.8-7.1h-3.7v11.2c0,3.1,0.6,3.7,3.3,3.7
		C245.1,836.3,247.5,833.5,247.5,828.6z"/>
</g>
<g>
	<path fill="#263238" d="M806.1,614.4c0.9-2.2,2.5-3,4.2-3c1.3,0,2,0.3,2.6,0.9c0.6,0.7,0.9,1.6,0.9,3.3v6.6c0,1.4,0.5,1.8,1.9,1.8
		v0.5c-0.6,0-1.9-0.1-2.9-0.1c-1.1,0-2.2,0.1-2.7,0.1V624c1.2,0,1.6-0.4,1.6-1.8v-7.2c0-1.5-0.2-2.9-2-2.9c-2,0-3.4,1.9-3.4,4.5v5.5
		c0,1.4,0.4,1.8,1.6,1.8v0.5c-0.5,0-1.7-0.1-2.7-0.1s-2.4,0.1-2.9,0.1V624c1.3,0,1.9-0.4,1.9-1.8v-14.1c0-1.5-0.4-2.2-1.9-2.2v-0.5
		c0.5,0,1,0.1,1.5,0.1c1,0,1.8-0.1,2.5-0.3V614.4z"/>
</g>
<g>
	<path fill="#263238" d="M526,632.4c0.9-2.2,2.5-3,4.2-3c1.3,0,2,0.3,2.6,0.9c0.6,0.7,0.9,1.6,0.9,3.3v6.6c0,1.4,0.5,1.8,1.9,1.8
		v0.5c-0.6,0-1.9-0.1-2.9-0.1c-1.1,0-2.2,0.1-2.7,0.1v-0.5c1.2,0,1.6-0.4,1.6-1.8v-7.2c0-1.5-0.2-2.9-2-2.9c-2,0-3.4,1.9-3.4,4.5
		v5.5c0,1.4,0.4,1.8,1.6,1.8v0.5c-0.5,0-1.7-0.1-2.7-0.1c-1.1,0-2.4,0.1-2.9,0.1v-0.5c1.3,0,1.9-0.4,1.9-1.8v-14.1
		c0-1.5-0.4-2.2-1.9-2.2v-0.5c0.5,0,1,0.1,1.5,0.1c1,0,1.8-0.1,2.5-0.3V632.4z"/>
</g>
<g>
	<path fill="#263238" d="M935.8,714.8c0.4,0.6,0.7,0.9,1.2,0.9v0.4c-0.3,0-0.9-0.1-1.4-0.1c-0.7,0-1.6,0.1-2,0.1v-0.4
		c0.3,0,0.5-0.1,0.5-0.3c0-0.1,0-0.2-0.1-0.3l-2-3c-0.4-0.6-0.7-0.8-1.3-0.8v3.1c0,1,0.3,1.3,1.2,1.3v0.4c-0.4,0-1.2-0.1-2-0.1
		c-0.8,0-1.7,0.1-2.2,0.1v-0.4c1,0,1.4-0.3,1.4-1.3v-10.3c0-1.1-0.3-1.6-1.4-1.6v-0.4c0.4,0,0.7,0.1,1.1,0.1c0.7,0,1.3-0.1,1.8-0.3
		v8.9c0.7-0.1,1.1-0.3,1.5-0.7l1.3-1.4c0.4-0.4,0.6-0.7,0.6-1c0-0.4-0.6-0.6-1.3-0.6v-0.4c0.6,0,1.5,0.1,2,0.1c0.6,0,1.2,0,1.5-0.1
		v0.4c-0.6,0.1-1.1,0.3-1.6,0.8l-2.2,2.3L935.8,714.8z"/>
</g>
<g>
	<path fill="#263238" d="M1000,650c-0.3,1-0.7,1.6-1.1,2.1c-0.5,0.4-1.2,0.8-2.4,0.8c-1.9,0-3.4-1.1-5.7-1.9
		c-0.2-0.1-0.3-0.1-0.4-0.1c-0.5,0.2-1,0.3-1.5,0.3c-0.5,0-0.8-0.1-0.8-0.4c0-0.2,0.3-0.4,1-0.4c0,0,0,0,0,0c1,0,2.1-0.1,3-0.5
		c0.1,0,0.2-0.1,0.3-0.1c-3-0.3-5-2.6-5-6.5c0-4,2.3-6.7,5.7-6.7c3.4,0,5.6,2.4,5.6,6.5c0,3.8-2.1,6.4-5.1,6.7v0
		c-1.1,0.1-1.6,0.6-2.6,0.9c1.8,0.4,4.3,0.9,5.6,0.9c1.7,0,2.6-0.5,3.2-1.6L1000,650z M993.1,649.5c2.3,0,3.8-2.6,3.8-6.3
		c0-3.8-1.7-6.3-3.9-6.3c-2.3,0-3.8,2.6-3.8,6.3C989.2,647,990.9,649.5,993.1,649.5z"/>
</g>
<g>
	<path fill="#E0E0E0" d="M248,729.2c-0.7,2.4-1.6,3.9-2.7,5c-1.1,1-2.9,1.9-5.8,1.9c-4.5,0-8.3-2.7-13.8-4.6c-0.4-0.1-0.8-0.2-1-0.3
		c-1.1,0.4-2.4,0.6-3.6,0.6c-1.2,0-2-0.3-2-0.9c0-0.6,0.7-0.9,2.3-0.9c0,0,0,0,0,0c2.5,0,5-0.3,7.3-1.3c0.3-0.1,0.5-0.2,0.8-0.3
		c-7.2-0.7-11.9-6.4-11.9-15.6c0-9.7,5.6-16.2,13.6-16.2c8.1,0,13.6,5.8,13.6,15.7c0,9.1-5,15.5-12.3,16.2v0
		c-2.6,0.3-3.8,1.4-6.3,2.1c4.3,0.9,10.2,2.1,13.6,2.1c4.1,0,6.3-1.2,7.6-3.8L248,729.2z M231.3,727.8c5.6,0,9.2-6.3,9.2-15.3
		c0-9.2-4.2-15.1-9.5-15.1c-5.6,0-9.2,6.3-9.2,15.3C221.8,721.9,226,727.8,231.3,727.8z"/>
</g>
<g>
	<path fill="#263238" d="M726.3,518.8c3.6,0,6.7,1.3,6.7,5.4c0,5.2-4.9,11.9-16.1,11.9c-5.8,0-11.6-1.8-11.6-5.3
		c0-2.8,3.6-5.4,7.2-7.1h-0.2c-2,0-5.8-0.5-5.8-4.4c0-2.5,1.7-4.9,7.2-7.4c-3.2-1.3-5.3-3.9-5.3-8.3c0-6.4,4.6-9.2,10.6-9.2
		c1.5,0,2.8,0.2,4.1,0.5c0.4-2.2,1.1-4,2-5.2c0.9-1.2,2.2-1.9,3.9-1.9c2,0,3,1.3,3,3c0,1.6-1.2,2.8-2.7,2.8c-2.1,0-2.7-1.4-3.1-3.7
		c-0.6,0.5-1.1,1.4-1.5,2.8c-0.2,0.7-0.4,1.4-0.6,2.4c3.3,1.2,5.5,3.9,5.5,8.4c0,6.4-4.6,9.2-10.6,9.2c-1.5,0-3-0.2-4.2-0.5
		c-2.6,1.4-4.8,2.8-4.8,4.6c0,1.3,0.8,1.9,2.7,1.9H726.3z M729.1,526.9c0-2.1-0.9-3.2-4.4-3.2H714c-2.5,1.3-3.9,3.7-3.9,5.9
		c0,3.9,4.5,5.6,8.4,5.6C723.3,535.1,729.1,532.5,729.1,526.9z M713.9,503.6c0,6.2,2,8.2,5.2,8.2c3.2,0,5.2-1.9,5.2-8.2
		c0-6.2-2-8.2-5.2-8.2C715.9,495.4,713.9,497.4,713.9,503.6z"/>
</g>
<g>
	<path fill="#E0E0E0" d="M434,559.2c3.6,0,6.7,1.3,6.7,5.4c0,5.2-4.9,11.9-16.1,11.9c-5.8,0-11.6-1.8-11.6-5.3
		c0-2.8,3.6-5.4,7.2-7.1h-0.2c-2,0-5.8-0.5-5.8-4.4c0-2.5,1.7-4.9,7.2-7.4c-3.2-1.3-5.3-3.9-5.3-8.3c0-6.4,4.6-9.2,10.6-9.2
		c1.5,0,2.8,0.2,4.1,0.5c0.4-2.2,1.1-4,2-5.2c0.9-1.2,2.2-1.9,3.9-1.9c2,0,3,1.3,3,3c0,1.6-1.2,2.8-2.7,2.8c-2.1,0-2.7-1.4-3.1-3.7
		c-0.6,0.5-1.1,1.4-1.5,2.8c-0.2,0.7-0.4,1.4-0.6,2.4c3.3,1.2,5.5,3.9,5.5,8.4c0,6.4-4.6,9.2-10.6,9.2c-1.5,0-3-0.2-4.2-0.5
		c-2.6,1.4-4.8,2.8-4.8,4.6c0,1.3,0.8,1.9,2.7,1.9H434z M436.8,567.3c0-2.1-0.9-3.2-4.4-3.2h-10.7c-2.5,1.3-3.9,3.7-3.9,5.9
		c0,3.9,4.5,5.6,8.4,5.6C431.1,575.5,436.8,572.9,436.8,567.3z M421.6,544c0,6.2,2,8.2,5.2,8.2c3.2,0,5.2-1.9,5.2-8.2
		s-2-8.2-5.2-8.2C423.7,535.8,421.6,537.8,421.6,544z"/>
</g>
<g>
	<path fill="#263238" d="M653.5,499.5c-1.2,0.1-1.4,0.2-1.4,1.5v8.6c0,1.3,0.2,1.4,1.4,1.4h1.3c2.1,0,2.6-0.8,2.8-3.2h0.4
		c0,0.4,0,0.9,0,1.4c0,0.4,0,1.3,0.1,2.2c-1.2-0.1-2.8-0.1-3.9-0.1c-1,0-3.3,0-5,0.1v-0.3c1.2-0.1,1.4-0.2,1.4-1.5V501
		c0-1.3-0.2-1.4-1.4-1.5v-0.3c0.5,0,1.3,0.1,2.2,0.1c0.8,0,1.7,0,2.2-0.1V499.5z"/>
</g>
<g>
	<path fill="#263238" d="M705.3,472.6c0,11.8-6.9,19.7-16.6,19.7c-9.9,0-16.5-7-16.5-19.1c0-11.8,6.9-19.7,16.6-19.7
		C698.7,453.5,705.3,460.5,705.3,472.6z M677.4,473.1c0,11.2,5.1,18.4,11.5,18.4c6.8,0,11.2-7.7,11.2-18.6
		c0-11.2-5.1-18.4-11.5-18.4C681.8,454.5,677.4,462.1,677.4,473.1z"/>
</g>
<g>
	<g>
		<g>
			<g>
				<path fill="#E0E0E0" d="M479.4,601l105,2.7c0,0-34.1-84.2-83.9-56.9C500.5,546.7,479.9,558.1,479.4,601z"/>
			</g>
		</g>
		<g>
			<g>
				<path fill="#FFFFFF" d="M516.3,541.2c0,0,54.6-2.9,75.1,100.8c17.8,90.4,32.3,224.4,120.3,226.2c88,1.8,166,0,166,0h35.5
					c-88-1.8-102.1-135.9-120.3-226.2c-18.2-90.3-75.1-100.8-75.1-100.8H516.3"/>
			</g>
		</g>
		<g>
			<g>
				<g>
					<path fill="#263238" d="M516.3,541.2c0,0,1.2,0,3.5,0c2.3,0,5.8,0,10.3,0c9.1,0,22.5,0,39.9-0.1c34.7,0,85.1-0.1,147.7-0.1h0
						l0,0c6.4,1.5,12.6,4.3,18.5,7.8c5.9,3.5,11.5,7.8,16.7,12.7c10.4,9.9,19.1,22.3,25.7,36.2c3.3,7,6.2,14.3,8.6,21.9
						c2.5,7.6,4.3,15.5,6,23.5c3.2,16.1,6.2,32.7,9.4,49.6c3.2,17,6.8,34.3,11.1,51.9c4.4,17.5,9.6,35.3,16.8,52.6
						c3.6,8.7,7.7,17.2,12.6,25.4c4.9,8.1,10.6,15.9,17.5,22.8c6.8,6.8,14.8,12.6,23.8,16.4c8.9,3.9,18.7,5.9,28.6,6.1l0,0.6
						c-7.3,0-14.7,0-22.2,0c-3.7,0-7.5,0-11.3,0c-3.8,0-7.6,0.1-11.4,0.2c-15.2,0.3-30.7,0.4-46.3,0.5c-31.7,0.2-62.9,0.1-93.5-0.4
						c-3.8-0.1-7.6-0.1-11.4-0.2c-3.8-0.1-7.6-0.1-11.4-0.5c-3.8-0.3-7.5-1-11.2-1.9c-3.7-0.9-7.3-2.1-10.7-3.5
						c-3.5-1.4-6.8-3.2-10-5.1c-3.2-2-6.2-4.1-9.1-6.5c-2.9-2.4-5.6-4.9-8.1-7.6c-2.5-2.7-4.9-5.5-7.2-8.5
						c-9-11.7-15.6-24.8-21.1-38.1c-5.5-13.3-9.8-26.8-13.4-40.2c-7.3-26.9-12.3-53.4-17-78.8c-4.8-25.4-8.4-50.1-16.6-72.2
						c-4.1-11-8.9-21.5-15.1-30.8c-6.1-9.3-13.5-17.4-22-23.4c-4.3-3-8.8-5.5-13.5-7.2c-2.4-0.9-4.7-1.6-7.2-2.1
						c-2.4-0.5-4.9-0.8-7.2-0.8c-4.8,0.5-9.5,1.8-13.6,4c-4.1,2.2-7.7,5.2-10.6,8.7c-2.9,3.5-5.1,7.4-6.8,11.4
						c-1.7,4-3,8.1-3.9,12.2c-0.9,4.1-1.5,8.1-1.9,12.1c-0.4,4-0.5,7.9-0.4,11.6l-0.2-0.1c16.4,0,30.9,0.4,43.5,0.7
						c12.6,0.4,23.3,0.7,31.9,0.9c17.2,0.4,25.8,0.7,26.4,0.7c0,0-0.6,0-1.7,0c-1.1,0-2.8,0-5-0.1c-4.4-0.1-11-0.2-19.7-0.4
						c-8.6-0.2-19.3-0.5-31.9-0.8c-12.6-0.3-27.2-0.6-43.5-0.6h-0.1l0-0.1c-0.1-3.8,0-7.7,0.4-11.7c0.4-4,1-8,1.9-12.1
						c0.9-4.1,2.2-8.2,3.9-12.2c1.7-4,4-8,6.9-11.5c2.9-3.5,6.5-6.6,10.7-8.8c4.2-2.2,8.9-3.6,13.7-4.1c2.5-0.1,4.9,0.3,7.4,0.8
						c2.4,0.5,4.8,1.2,7.2,2.1c4.8,1.8,9.3,4.2,13.6,7.3c8.6,6,16,14.2,22.1,23.5c6.2,9.3,11.1,19.8,15.2,30.9
						c4.1,11.1,7.2,22.8,9.7,35c2.5,12.1,4.7,24.6,7,37.3c4.7,25.4,9.7,51.9,17,78.7c3.7,13.4,8,26.9,13.4,40.1
						c5.5,13.2,12.1,26.3,21,37.9c2.2,2.9,4.6,5.7,7.1,8.4c2.5,2.7,5.2,5.2,8.1,7.6c2.8,2.4,5.9,4.5,9,6.5c3.2,2,6.5,3.7,9.9,5.1
						c3.4,1.4,7,2.6,10.6,3.5c3.6,0.9,7.4,1.5,11.1,1.8c3.7,0.4,7.5,0.4,11.3,0.4c3.8,0.1,7.6,0.1,11.4,0.2
						c30.6,0.5,61.8,0.6,93.5,0.4c15.6-0.1,31.1-0.3,46.3-0.5c3.8,0,7.6-0.2,11.4-0.2c3.8,0,7.5,0,11.3,0c7.5,0,14.9,0,22.2,0l0,0.6
						c-9.9-0.2-19.8-2.2-28.8-6.1c-9-3.9-17.1-9.7-24-16.6c-6.9-6.9-12.6-14.7-17.6-22.9c-4.9-8.2-9.1-16.8-12.7-25.5
						c-7.2-17.4-12.4-35.2-16.8-52.7c-4.4-17.6-7.9-34.9-11.1-51.9c-3.2-17-6.2-33.6-9.4-49.6c-1.7-8-3.5-15.9-6-23.4
						c-2.4-7.6-5.3-14.9-8.6-21.8c-6.6-13.9-15.2-26.3-25.6-36.1c-5.1-4.9-10.8-9.2-16.6-12.7c-5.9-3.5-12-6.3-18.4-7.8l0,0
						c-62.6,0-113-0.1-147.7-0.1c-17.4,0-30.8,0-39.9-0.1c-4.5,0-8,0-10.3,0C517.5,541.3,516.3,541.2,516.3,541.2z"/>
				</g>
			</g>
		</g>
		<g>
			<g>
				<g>
					<g>
						<path fill="#E0E0E0" d="M779.8,827c0.2,11.8-4.9,23.5-13.7,31.3c-6.3,5.6-14.4,9.1-22.7,9.9l214.6,1.4
							c32.1,0,33.8-42.7,33.8-42.7H779.8z"/>
					</g>
				</g>
			</g>
			<g>
				<g>
					<g>
						<path fill="#263238" d="M960.8,869.7c0,0,0.3-0.1,1-0.1c0.7-0.1,1.7-0.1,2.9-0.4c2.5-0.5,6.4-1.6,10.4-4.5
							c4.1-2.9,8.1-7.7,11-14.2c2.9-6.5,5-14.5,5.6-23.4l0.2,0.2c-28.7,0-66.8,0.1-108.4,0.2c-39.4,0-75.7,0-103.6,0l0.2-0.2
							c0.1,4.9-0.9,9.5-2.3,13.6c-1.5,4.1-3.4,7.8-5.7,11c-4.5,6.4-10,10.4-14.8,12.9c-4.9,2.5-9,3.4-11.9,3.8
							c-2.8,0.4-4.4,0.4-4.4,0.4s0.4-0.1,1.1-0.1c0.7-0.1,1.8-0.2,3.2-0.4c2.8-0.5,7-1.4,11.8-3.9c4.8-2.4,10.2-6.5,14.6-12.8
							c2.2-3.1,4.1-6.8,5.6-10.9c1.4-4.1,2.3-8.7,2.2-13.5l0-0.2l0.2,0c28,0,64.2-0.1,103.6-0.2c41.7,0,79.7,0,108.4,0l0.2,0l0,0.2
							c-0.3,4.5-1,8.7-2,12.7c-1,3.9-2.2,7.6-3.7,10.8c-3,6.5-7,11.4-11.2,14.3c-4.1,2.9-8,4-10.5,4.4c-1.3,0.3-2.3,0.3-3,0.4
							C961.1,869.7,960.8,869.7,960.8,869.7z"/>
					</g>
				</g>
			</g>
		</g>
	</g>
	<g>
		<g>
			<g>
				<path fill="#263238" d="M731.4,577.7c0,0.2-32,0.3-71.6,0.3c-39.5,0-71.6-0.1-71.6-0.3c0-0.2,32-0.3,71.6-0.3
					C699.4,577.4,731.4,577.5,731.4,577.7z"/>
			</g>
		</g>
	</g>
	<g>
		<g>
			<g>
				<path fill="#263238" d="M731.4,592.3c0,0.2-30.7,0.3-68.6,0.3c-37.9,0-68.6-0.1-68.6-0.3c0-0.2,30.7-0.3,68.6-0.3
					C700.7,591.9,731.4,592.1,731.4,592.3z"/>
			</g>
		</g>
	</g>
	<g>
		<g>
			<g>
				<path fill="#263238" d="M727.9,605.3c0,0.2-28.5,0.3-63.7,0.3c-35.2,0-63.7-0.1-63.7-0.3c0-0.2,28.5-0.3,63.7-0.3
					C699.4,605,727.9,605.1,727.9,605.3z"/>
			</g>
		</g>
	</g>
</g>
<g>
	<g>
		<g>
			<g>
				<g>
					<g>
						<g>
							<g>
								<g>
									<g>
										<g>
											<g>
												<g>
													<path fill="#FFFFFF" d="M804.8,478.6c16.3-6,24.8-24.3,18.8-40.9c-5.9-16.6-24-25.1-40.4-19.1
														c-16.3,6-24.8,24.3-18.8,40.9C770.3,476.1,788.4,484.7,804.8,478.6z"/>
												</g>
											</g>
											<g>
												<g>
													<g>
														<path fill="#263238" d="M804.8,477.5c0,0-0.2,0.1-0.5,0.2c-0.3,0.1-0.8,0.3-1.4,0.5c-0.3,0.1-0.7,0.2-1.1,0.3
															c-0.4,0.1-0.8,0.2-1.3,0.3c-0.9,0.2-2,0.5-3.3,0.6c-2.5,0.3-5.6,0.3-9.1-0.3c-3.5-0.7-7.4-2-11.2-4.5
															c-3.8-2.5-7.5-6-10.2-10.6c-2.6-4.6-4.5-10.3-4.4-16.3c-0.1-1.5,0.1-3,0.3-4.6c0.1-0.8,0.3-1.5,0.4-2.3
															c0.1-0.8,0.4-1.5,0.6-2.3c0.4-1.5,1-3,1.6-4.5c0.7-1.4,1.4-2.9,2.4-4.2c1.8-2.7,4-5.3,6.7-7.4c2.6-2.1,5.6-3.8,8.9-5
															c3.3-1.2,6.6-1.8,10-1.9c3.4-0.2,6.7,0.4,9.8,1.3c1.6,0.4,3,1.1,4.5,1.7c1.4,0.8,2.8,1.5,4.1,2.4
															c0.7,0.4,1.3,0.9,1.9,1.4c0.6,0.5,1.2,1,1.8,1.5c1.1,1.1,2.2,2.1,3.1,3.3c3.9,4.6,6,10.1,7,15.4
															c0.9,5.3,0.3,10.4-1.1,14.7c-1.4,4.4-3.5,8-5.8,10.7c-2.3,2.8-4.6,4.8-6.8,6.2c-1,0.8-2,1.3-2.9,1.7
															c-0.4,0.2-0.8,0.5-1.2,0.6c-0.4,0.2-0.7,0.3-1,0.4c-0.6,0.2-1.1,0.4-1.4,0.6C804.9,477.4,804.8,477.5,804.8,477.5
															c0,0,0.2-0.1,0.5-0.2c0.3-0.2,0.8-0.4,1.4-0.6c0.3-0.1,0.6-0.3,1-0.4c0.4-0.2,0.7-0.4,1.2-0.6c0.8-0.5,1.8-1,2.8-1.8
															c2.1-1.4,4.4-3.5,6.6-6.2c2.2-2.8,4.3-6.3,5.6-10.7c1.3-4.3,1.9-9.3,1-14.5c-0.9-5.2-3-10.6-6.9-15.1
															c-0.9-1.2-2-2.2-3.1-3.3c-0.6-0.5-1.2-1-1.8-1.4c-0.6-0.5-1.2-0.9-1.9-1.3c-1.3-0.9-2.7-1.6-4-2.3
															c-1.5-0.6-2.9-1.3-4.4-1.7c-3.1-0.9-6.3-1.4-9.6-1.3c-3.3,0.1-6.6,0.7-9.8,1.9c-3.2,1.2-6.1,2.9-8.7,4.9
															c-2.6,2-4.8,4.6-6.6,7.2c-0.9,1.3-1.6,2.8-2.4,4.2c-0.6,1.5-1.2,2.9-1.6,4.4c-0.2,0.7-0.5,1.5-0.6,2.2
															c-0.1,0.8-0.3,1.5-0.4,2.3c-0.1,1.5-0.3,3-0.3,4.5c-0.1,6,1.7,11.5,4.3,16.1c2.6,4.6,6.3,8.1,10,10.5
															c3.7,2.5,7.6,3.8,11.1,4.5c3.5,0.7,6.6,0.8,9,0.4c1.2-0.1,2.3-0.3,3.3-0.5c0.5-0.1,0.9-0.2,1.3-0.3
															c0.4-0.1,0.7-0.2,1.1-0.3c0.6-0.2,1.1-0.3,1.4-0.4C804.6,477.5,804.8,477.5,804.8,477.5z"/>
													</g>
												</g>
											</g>
										</g>
									</g>
								</g>
							</g>
						</g>
					</g>
				</g>
			</g>
		</g>
	</g>
	<g>
		<g>
			<g>
				<path fill="#263238" d="M785.5,445.4c2.9,3.9-1.4,8.3-5.3,5.3C777.3,446.9,781.7,442.5,785.5,445.4z"/>
			</g>
		</g>
		<g>
			<g>
				<path fill="#263238" d="M796.6,445.4c2.9,3.9-1.4,8.3-5.3,5.3C788.4,446.9,792.8,442.5,796.6,445.4z"/>
			</g>
		</g>
		<g>
			<g>
				<path fill="#263238" d="M807.8,445.4c2.9,3.9-1.4,8.3-5.3,5.3C799.5,446.9,803.9,442.5,807.8,445.4z"/>
			</g>
		</g>
	</g>
	<g>
		<g>
			<g>
				<ellipse fill="#FFFFFF" cx="831.4" cy="467.9" rx="4" ry="4"/>
			</g>
		</g>
		<g>
			<g>
				<g>
					<path fill="#263238" d="M835.4,467.9c-0.1,0-0.1-0.4-0.2-1c-0.2-0.6-0.6-1.4-1.5-2.1c-0.8-0.6-2.2-1-3.6-0.5
						c-1.3,0.5-2.4,1.9-2.4,3.5c0,1.7,1.1,3.1,2.4,3.5c1.3,0.5,2.7,0.2,3.6-0.5c0.9-0.6,1.3-1.5,1.5-2.1
						C835.3,468.2,835.3,467.9,835.4,467.9c0,0,0.1,0.4,0,1c-0.1,0.6-0.5,1.6-1.4,2.4c-0.9,0.8-2.5,1.2-4,0.7
						c-1.5-0.5-2.9-2.1-2.8-4.1c0-1.9,1.3-3.6,2.8-4.1c1.5-0.6,3.1-0.1,4,0.7c0.9,0.8,1.3,1.7,1.4,2.4
						C835.5,467.5,835.4,467.9,835.4,467.9z"/>
				</g>
			</g>
		</g>
	</g>
</g>
<g>
	<g>
		<g>
			<g>
				<path fill="#38E54D" d="M1043.7,404c-1.3-3.4-19.2-10.8-54,1.2c-2.4,7.3-4.8,14.6-7.3,21.9c-0.7-6.6-0.3-13.3,1.1-19.7
					c-0.1,0-0.2,0.1-0.4,0.1c-39.1,15.3-109.4,52.8-129.6,70.1c-11.4,9.8-20.7,22.6-26.6,32c-4.7,7.5-12,19.5-10.7,28.3l-0.2,3.6
					l9.5,9.8c0,0,36.2,10.6,45.3,10c9.1-0.6,76.8-43.6,90.7-56.1l-7.2-3.7l12.2-0.1c0,0,16.3-13,33-27.4
					c-6.7-6.1-13.5-12.1-20.2-18.2c9.4,3,18.3,7.3,26.7,12.6c11-9.7,21.4-19.4,26.3-25.8C1045.6,425.7,1045.1,407.6,1043.7,404z"/>
			</g>
		</g>
		<g opacity="0.3">
			<g>
				<g>
					<path d="M937.5,522.8c1.4-5.1,2.4-8.8,3.7-13.9c0.9-3.5,1.9-7,1.7-10.6c-0.2-3.6-1.6-7.3-4.5-9.4
						c21.5-21.9,44.4-42.2,68.7-60.8l-83.3,54.6l-3.3,16.6l8.8,28.8L937.5,522.8z"/>
				</g>
			</g>
		</g>
		<g>
			<g>
				<g>
					<path fill="#263238" d="M971.3,418.7c0,0-0.2,0.6-0.7,1.7c-0.5,1.2-1.3,2.8-2.1,4.6c-1.8,3.9-4.2,9.4-6.6,15.5
						c-2.4,6.1-4.3,11.8-5.7,15.9c-0.6,2-1.2,3.6-1.6,4.9c-0.4,1.2-0.6,1.8-0.6,1.8c0,0,0.1-0.7,0.4-1.8c0.3-1.2,0.8-2.9,1.4-4.9
						c1.2-4.1,3.1-9.8,5.5-16c2.4-6.2,4.9-11.6,6.8-15.5c0.9-1.9,1.7-3.5,2.3-4.6C970.9,419.3,971.3,418.7,971.3,418.7z"/>
				</g>
			</g>
		</g>
		<g>
			<g>
				<g>
					<path fill="#263238" d="M954.1,443.9c0.2,0.1-1.2,3.7-3,8.2c-1.8,4.5-3.4,8-3.6,8c-0.2-0.1,1.2-3.7,3-8.2
						C952.3,447.4,953.9,443.9,954.1,443.9z"/>
				</g>
			</g>
		</g>
		<g>
			<g>
				<g>
					<path fill="#263238" d="M930.1,473c0,0,0.6,0.2,1.6,0.8c1,0.5,2.5,1.3,4.4,2.3c3.7,1.9,9,4.3,14.9,6.4c6,2.2,11.5,3.7,15.6,4.7
						c2,0.5,3.7,0.9,4.8,1.1c1.1,0.2,1.8,0.4,1.8,0.4c0,0-0.6,0-1.8-0.2c-1.2-0.2-2.8-0.5-4.9-0.9c-4.1-0.9-9.7-2.4-15.7-4.5
						c-6-2.2-11.2-4.7-14.9-6.6c-1.8-1-3.3-1.8-4.3-2.4C930.6,473.3,930.1,473,930.1,473z"/>
				</g>
			</g>
		</g>
		<g>
			<g>
				<g>
					<path fill="#263238" d="M1013.2,449.2c0,0-0.4,0-1.2,0c-0.8-0.1-1.9-0.2-3.2-0.3c-2.7-0.3-6.4-1-10.5-1.9
						c-4.1-0.9-7.7-2-10.3-2.9c-1.3-0.4-2.3-0.8-3-1.1c-0.7-0.3-1.1-0.5-1.1-0.5c0-0.1,1.6,0.4,4.2,1.2c2.6,0.8,6.2,1.8,10.3,2.7
						c4,0.9,7.7,1.6,10.4,2.1C1011.5,448.9,1013.2,449.1,1013.2,449.2z"/>
				</g>
			</g>
		</g>
		<g>
			<g>
				<g>
					<path fill="#263238" d="M1007.9,441.7c0,0.1-1,0.2-2.8,0.3c-1.7,0-4.1,0-6.7-0.3c-2.6-0.3-4.9-0.7-6.6-1.1
						c-1.7-0.4-2.7-0.7-2.7-0.8c0-0.1,1.1,0.1,2.7,0.4c1.7,0.3,4,0.6,6.6,0.9c2.6,0.3,4.9,0.4,6.6,0.4
						C1006.9,441.6,1007.9,441.6,1007.9,441.7z"/>
				</g>
			</g>
		</g>
		<g>
			<g>
				<g>
					<g>
						<path fill="#263238" d="M838,523.6c26.4-15.4,52.9-33.6,79.2-49c25.7-15.1,92.7-52.6,120.5-68.1c0.4-0.2,1-0.1,1.2,0.3l0,0
							c0.3,0.4,0.2,1-0.3,1.3c-12.5,8.7-25.2,17-37.9,25.3c-43.9,29.4-111.2,72.8-154.2,103.3c-18.8,13.2-44.3,31.2-64,43L772.3,565
							C792.9,553,817.3,535.9,838,523.6z"/>
					</g>
				</g>
				<g>
					<g>
						<g>
							<path fill="#455A64" d="M838,523.6c0,0-0.4,0.3-1.1,0.7c-0.8,0.5-1.9,1.2-3.4,2.1c-3,1.8-7.3,4.6-13,8.2
								c-5.6,3.6-12.5,8.1-20.5,13.3c-8,5.2-17.2,11.2-27.6,17.3l0.1-0.3c3.2,4.6,6.6,9.6,10.2,14.7l-0.3-0.1
								c24.6-14.8,52.2-35,83.3-56.6c31.2-21.5,65.9-44.2,102.3-68.3c18.4-12.1,36.3-24.1,53.6-35.7c4.3-2.9,8.6-5.7,12.8-8.6
								c1.1-0.7,2.1-1.4,3.2-2.1l0.8-0.5c0.3-0.2,0.4-0.3,0.4-0.5c0.1-0.5-0.4-0.9-0.9-0.7c-2.2,1.2-4.4,2.5-6.5,3.7
								c-8.7,4.9-17.2,9.7-25.5,14.4c-33.2,18.8-63.2,35.7-88.3,49.9c-12.5,7.3-23.5,14.3-33.2,20.4c-9.7,6.1-18,11.4-24.9,15.7
								c-6.9,4.3-12.2,7.5-15.9,9.7c-1.8,1.1-3.2,1.9-4.2,2.4C838.5,523.3,838,523.6,838,523.6s0.5-0.3,1.4-0.9
								c0.9-0.6,2.3-1.4,4.1-2.5c3.6-2.2,9-5.5,15.8-9.8c6.8-4.3,15.2-9.6,24.8-15.8c9.7-6.2,20.7-13.2,33.2-20.5
								c25.1-14.2,55-31.2,88.2-50c8.3-4.7,16.8-9.5,25.5-14.4c2.2-1.2,4.4-2.5,6.6-3.7c0.4-0.2,0.9-0.1,1.2,0.2
								c0.3,0.3,0.5,0.7,0.5,1.1c0,0.4-0.3,0.8-0.6,1l-0.8,0.5c-1.1,0.7-2.1,1.4-3.2,2.1c-4.2,2.8-8.5,5.7-12.8,8.6
								c-17.3,11.6-35.1,23.6-53.6,35.7c-36.4,24-71.2,46.8-102.4,68.2c-31.1,21.5-58.7,41.7-83.4,56.5l-0.2,0.1l-0.1-0.2
								c-3.6-5.2-7-10.1-10.2-14.8l-0.1-0.2l0.2-0.1c10.5-6.1,19.6-12.1,27.6-17.2c8-5.2,14.9-9.6,20.5-13.2c5.6-3.6,10-6.3,13-8.1
								c1.5-0.9,2.6-1.6,3.4-2C837.6,523.8,838,523.6,838,523.6z"/>
						</g>
					</g>
				</g>
			</g>
			<g>
				<g>
					<path fill="#263238" d="M897.1,490.2c2.3-15.3,5.6-30.5,9.8-45.3"/>
				</g>
			</g>
			<g>
				<g>
					<g>
						<path fill="#263238" d="M897.9,458.5c0,0,0,0.4-0.2,1.2c-0.2,0.9-0.4,2-0.7,3.3c-0.6,2.8-1.3,6.7-2,11
							c-0.6,4.3-1,8.2-1.3,11.1c-0.1,1.3-0.2,2.4-0.3,3.4c-0.1,0.8-0.1,1.2-0.2,1.2s-0.1-0.4-0.1-1.2c0-0.8,0-2,0.1-3.4
							c0.1-2.9,0.5-6.8,1.1-11.1c0.6-4.3,1.4-8.2,2.1-11c0.3-1.4,0.6-2.5,0.9-3.3C897.7,458.9,897.8,458.5,897.9,458.5z"/>
					</g>
				</g>
			</g>
			<g>
				<g>
					<g>
						<path fill="#E0E0E0" d="M742.2,580c0,0,15-4.3,22.1-7.5c5.1-2.3,7.4-9.6,7.4-9.6l3.8-0.4l11,14.7l-2.1,3.9
							c0,0-7.6-1.5-12.6,2.8c-5,4.3-13.9,17.3-13.9,17.3c-9.1-0.9-17.9,0.4-25.9,4.4l-0.7-1l18.5-12.4l0.4,0.4
							c1.1,0.9,2.7,1.4,4.1,1c2.4-0.6,3.8-3.1,3.1-5.6c-0.7-2.5-3.3-4.1-5.8-3.5c-2.4,0.6-3.8,3.1-3.1,5.6l-18.1,13.1l-0.8-1.3
							C729.7,602,742.2,590.3,742.2,580z"/>
					</g>
				</g>
				<g>
					<g>
						<g>
							<path fill="#263238" d="M742.2,580c0,0,0,0.2,0,0.5c0,0.3,0,0.8-0.1,1.3c-0.1,0.6-0.2,1.3-0.4,2.1c-0.3,0.8-0.5,1.8-0.9,2.8
								c-1.6,4.2-5.2,9.7-11,15.5l0-0.2c0.3,0.4,0.6,0.8,0.9,1.3l-0.3-0.1c5.2-3.8,11.3-8.2,18.1-13.1l-0.1,0.3
								c-0.3-1-0.3-2.1,0.1-3.1c0.4-1,1.1-1.9,2.1-2.4c2-1.1,4.6-0.4,6.1,1.4c0.7,0.9,1.2,2,1.2,3.2c0,1.2-0.4,2.4-1.2,3.3
								c-0.8,0.9-2,1.4-3.2,1.5c-1.2,0-2.4-0.4-3.4-1.2l0,0l0,0c-0.1-0.1-0.3-0.3-0.4-0.4l0.4,0c-5.9,3.9-12.1,8.1-18.5,12.4
								l0.1-0.4c0.2,0.3,0.4,0.7,0.7,1l-0.4-0.1c3.5-1.8,7.5-3.1,11.7-3.9c4.8-0.9,9.7-1,14.4-0.5l-0.3,0.1
								c3.7-5.2,7.3-10.2,11.3-14.6c1-1.1,2-2.2,3.2-3.1c1.2-0.9,2.5-1.6,3.9-2c2.8-0.8,5.6-0.9,8.4-0.5l-0.3,0.1
								c0.7-1.3,1.4-2.6,2.1-3.9l0,0.3c-4-5.3-7.6-10.2-11-14.7l0.2,0.1c-1.4,0.1-2.6,0.2-3.8,0.3l0.2-0.2c-1,2.6-2.3,5-3.9,6.9
								c-0.8,0.9-1.8,1.8-2.8,2.4c-0.5,0.3-1,0.6-1.6,0.8c-0.5,0.2-1,0.4-1.5,0.6c-4.1,1.6-7.7,2.7-10.6,3.7c-2.9,0.9-5.2,1.6-6.8,2
								c-0.8,0.2-1.4,0.4-1.8,0.5C742.4,579.9,742.3,580,742.2,580c0,0,0.2-0.1,0.6-0.2c0.4-0.1,1-0.3,1.8-0.5
								c1.6-0.5,3.9-1.2,6.8-2.1c2.9-1,6.5-2.1,10.6-3.8c1-0.4,2.1-0.8,3.1-1.4c1-0.6,1.9-1.4,2.7-2.3c1.6-1.9,2.9-4.2,3.8-6.8
								l0-0.1l0.1,0c1.2-0.1,2.5-0.2,3.8-0.4l0.1,0l0.1,0.1c3.4,4.5,7.1,9.4,11.1,14.7l0.1,0.1l-0.1,0.2c-0.7,1.3-1.4,2.5-2.1,3.9
								l-0.1,0.2l-0.2,0c-2.6-0.4-5.4-0.3-8.1,0.5c-1.3,0.4-2.6,1-3.7,1.9c-1.1,0.9-2.1,1.9-3.1,3c-3.9,4.4-7.6,9.4-11.2,14.6
								l-0.1,0.1l-0.2,0c-4.7-0.4-9.5-0.3-14.2,0.5c-4.1,0.8-8,2.1-11.5,3.9L732,606l-0.1-0.2c-0.2-0.4-0.5-0.7-0.7-1l-0.2-0.3
								l0.2-0.2c6.4-4.3,12.6-8.4,18.5-12.4l0.2-0.1l0.2,0.2c0.1,0.2,0.3,0.3,0.4,0.4l0,0c0.9,0.7,1.9,1.1,3,1.1
								c1.1,0,2.1-0.5,2.9-1.3c0.7-0.8,1.1-1.9,1.1-2.9c0-1.1-0.4-2.1-1.1-2.9c-1.3-1.6-3.7-2.2-5.5-1.3c-1.8,0.9-2.6,3.1-2,4.9
								l0.1,0.2l-0.1,0.1c-6.8,4.9-12.9,9.3-18.2,13.1l-0.2,0.1l-0.1-0.2c-0.3-0.5-0.6-0.9-0.8-1.3l-0.1-0.1l0.1-0.1
								c5.8-5.7,9.4-11.2,11.1-15.3C742.4,582.5,742.1,579.9,742.2,580z"/>
						</g>
					</g>
				</g>
			</g>
		</g>
		<g>
			<g>
				<g>
					<path fill="#263238" d="M772,563.6c0.1,0,0.8,1,2,2.6c1.3,1.8,2.8,4,4.5,6.4c1.8,2.5,3.5,4.7,4.7,6.2c1.3,1.5,2.1,2.5,2,2.5
						c-0.1,0.1-1-0.8-2.4-2.2c-1.4-1.5-3.1-3.6-4.9-6.2c-1.8-2.5-3.3-4.9-4.3-6.6C772.6,564.7,771.9,563.7,772,563.6z"/>
				</g>
			</g>
		</g>
		<g>
			<g>
				<g>
					<path fill="#455A64" d="M867.3,505.3c0,0-0.4,0.4-1.2,0.9c-0.9,0.6-2.1,1.4-3.5,2.3c-3,1.9-7.1,4.5-11.7,7.3
						c-4.6,2.8-8.7,5.4-11.8,7.2c-1.4,0.8-2.6,1.6-3.6,2.1c-0.9,0.5-1.3,0.7-1.4,0.7c0,0,0.4-0.4,1.2-0.9c0.9-0.6,2.1-1.4,3.5-2.3
						c3-1.9,7.1-4.5,11.7-7.3c4.6-2.8,8.7-5.4,11.8-7.2c1.4-0.8,2.6-1.6,3.6-2.1C866.8,505.5,867.3,505.3,867.3,505.3z"/>
				</g>
			</g>
		</g>
		<g>
			<g>
				<g>
					<path fill="#38E54D" d="M149.5,110.5c1.3-1.4,11.5-1.1,25.8,12.2c-0.4,4.1-0.7,8.1-1.1,12.2c1.7-3,2.9-6.3,3.6-9.8
						c0,0,0.1,0.1,0.1,0.1c15.7,15.8,41.8,49.1,47.9,61.8c3.4,7.2,5.2,15.4,6.1,21.2c0.7,4.6,1.7,12-0.8,16l-0.7,1.8l-6.6,2.7
						c0,0-13.3,2.8-24-4.9c-7.6-5.5-27.9-37.6-32-46.6l4.3-0.2l-5.9-2.7c0,0-5.1-9.8-10.2-20.3c4.5-1.5,9.1-3,13.6-4.4
						c-5.2-0.5-10.4-0.4-15.5,0.3c-3.3-7.1-6.2-14-7.3-18.1C144,120.6,148.1,112,149.5,110.5z"/>
				</g>
			</g>
			<g>
				<g>
					<path fill="#263238" d="M222.7,212.1c-9.5-13.1-18.5-27.6-28-40.7c-9.3-12.8-33.7-45.4-43.9-58.9c-0.2-0.2-0.4-0.3-0.7-0.1l0,0
						c-0.2,0.1-0.3,0.4-0.1,0.7c4.2,6.9,8.6,13.6,13,20.4c15,23.7,38.4,59.1,52.8,83.1c6.3,10.4,6.6,11.6,13.6,21.5l8-4.9
						C230.1,223,230.2,222.6,222.7,212.1z"/>
				</g>
			</g>
			<g>
				<g>
					<path fill="#E0E0E0" d="M249.9,249.5c0,0-6.4-5.3-9.1-8.4c-2-2.2-1.6-6.3-1.6-6.3l-1.8-1l-8.4,4.7l0.2,2.3c0,0,4,0.9,5.5,4.1
						c1.5,3.2,3.1,11.3,3.1,11.3c4.6,1.5,8.5,4,11.6,7.7l0.5-0.4l-6.3-10l-0.3,0.1c-0.7,0.2-1.6,0.1-2.2-0.4
						c-1.1-0.8-1.2-2.3-0.3-3.4c0.9-1.1,2.5-1.3,3.5-0.4c1.1,0.8,1.2,2.3,0.3,3.4l6,10.2l0.7-0.4
						C251.3,262.9,247.7,254.5,249.9,249.5z"/>
				</g>
			</g>
			<g>
				<g>
					<g>
						<path fill="#263238" d="M181.4,131.2c0,0,0,0.4,0,1c0,0.7,0,1.6,0.1,2.7c0,2.3,0,5.4-0.1,8.9c-0.1,3.5-0.4,6.6-0.6,8.9
							c-0.1,1.1-0.2,2-0.3,2.7c-0.1,0.6-0.1,1-0.1,1c0,0,0.1-0.3,0.2-1c0.1-0.6,0.2-1.5,0.4-2.7c0.3-2.3,0.6-5.4,0.7-8.9
							c0.1-3.5,0.1-6.7,0-8.9c0-1.1-0.1-2.1-0.2-2.7C181.5,131.6,181.4,131.2,181.4,131.2z"/>
					</g>
				</g>
			</g>
			<g>
				<g>
					<g>

							<ellipse transform="matrix(2.525069e-002 -0.9997 0.9997 2.525069e-002 27.9742 332.1393)" fill="#263238" cx="184.3" cy="151.7" rx="4.6" ry="0.2"/>
					</g>
				</g>
			</g>
			<g>
				<g>
					<g>
						<path fill="#263238" d="M221.7,191.7c0,0,0,0.4,0,1c0,0.7,0,1.6,0.1,2.7c0,2.3,0,5.4-0.1,8.9c-0.1,3.5-0.4,6.6-0.6,8.9
							c-0.1,1.1-0.2,2-0.3,2.7c-0.1,0.6-0.1,1-0.1,1c0,0,0.1-0.3,0.2-1c0.1-0.6,0.2-1.5,0.4-2.7c0.3-2.3,0.6-5.4,0.7-8.9
							c0.1-3.5,0.1-6.7,0-8.9c0-1.1-0.1-2.1-0.2-2.7C221.8,192.1,221.7,191.7,221.7,191.7z"/>
					</g>
				</g>
			</g>
			<g>
				<g>
					<g>
						<path fill="#263238" d="M219.7,181.9c0,0,0,0.4,0,1c0,0.7,0,1.6,0.1,2.7c0,2.3,0,5.4-0.1,8.9c-0.1,3.5-0.4,6.6-0.6,8.9
							c-0.1,1.1-0.2,2-0.3,2.7c-0.1,0.6-0.1,1-0.1,1c0,0,0.1-0.3,0.2-1c0.1-0.6,0.2-1.5,0.4-2.7c0.3-2.3,0.6-5.4,0.7-8.9
							c0.1-3.5,0.1-6.7,0-8.9c0-1.1-0.1-2.1-0.2-2.7C219.7,182.3,219.7,181.9,219.7,181.9z"/>
					</g>
				</g>
			</g>
			<g>
				<g>
					<g>
						<path fill="#263238" d="M212,172.2c0,0,0,0.4,0,1c0,0.7,0,1.6,0.1,2.7c0,2.3,0,5.4-0.1,8.9c-0.1,3.5-0.4,6.6-0.6,8.9
							c-0.1,1.1-0.2,2-0.3,2.7c-0.1,0.6-0.1,1-0.1,1c0,0,0.1-0.3,0.2-1c0.1-0.6,0.2-1.5,0.4-2.7c0.3-2.3,0.6-5.4,0.7-8.9
							c0.1-3.5,0.1-6.7,0-8.9c0-1.1-0.1-2.1-0.2-2.7C212.1,172.6,212,172.2,212,172.2z"/>
					</g>
				</g>
			</g>
			<g>
				<g>
					<g>

							<ellipse transform="matrix(2.525069e-002 -0.9997 0.9997 2.525069e-002 6.8097 431.3708)" fill="#263238" cx="224.6" cy="212.2" rx="4.6" ry="0.2"/>
					</g>
				</g>
			</g>
			<g>
				<g>
					<g>
						<path fill="#263238" d="M189.9,166.3c0,0-0.3,0-1,0c-0.6,0-1.5,0.1-2.6,0.1c-2.2,0.1-5.2,0.1-8.6-0.1
							c-3.3-0.2-6.3-0.7-8.5-1.1c-1.1-0.2-2-0.4-2.6-0.5c-0.6-0.1-0.9-0.2-0.9-0.2c0,0,0.3,0.1,0.9,0.3c0.6,0.2,1.5,0.4,2.5,0.6
							c2.2,0.5,5.2,0.9,8.5,1.2c3.4,0.2,6.4,0.2,8.6,0c1.1-0.1,2-0.2,2.6-0.2C189.6,166.4,189.9,166.3,189.9,166.3z"/>
					</g>
				</g>
			</g>
			<g>
				<g>
					<g>
						<path fill="#263238" d="M197.6,184.7c0,0-0.3,0-1,0c-0.6,0-1.5,0.1-2.6,0.1c-2.2,0.1-5.2,0.1-8.6-0.1
							c-3.3-0.2-6.3-0.7-8.5-1.1c-1.1-0.2-2-0.4-2.6-0.5c-0.6-0.1-0.9-0.2-0.9-0.2c0,0,0.3,0.1,0.9,0.3c0.6,0.2,1.5,0.4,2.5,0.6
							c2.2,0.5,5.2,0.9,8.5,1.2c3.4,0.2,6.4,0.2,8.6,0c1.1-0.1,2-0.2,2.6-0.2C197.3,184.8,197.6,184.7,197.6,184.7z"/>
					</g>
				</g>
			</g>
			<g>
				<g>
					<g>
						<path fill="#263238" d="M154.7,136.9c0,0,0.2,0.1,0.6,0.2c0.4,0.1,0.9,0.3,1.6,0.5c1.4,0.4,3.3,0.9,5.5,1.3
							c2.2,0.4,4.1,0.7,5.6,0.8c0.7,0.1,1.3,0.1,1.7,0.1c0.4,0,0.6,0,0.6,0c0,0-0.9-0.1-2.3-0.3c-1.4-0.2-3.4-0.5-5.5-0.9
							c-2.1-0.4-4.1-0.9-5.5-1.2C155.6,137.1,154.8,136.9,154.7,136.9z"/>
					</g>
				</g>
			</g>
			<g>
				<g>
					<g>
						<path fill="#263238" d="M158.9,134.5c0,0,0.5,0.3,1.3,0.7c0.8,0.4,2,0.9,3.3,1.3c1.3,0.4,2.5,0.7,3.4,0.9
							c0.9,0.2,1.4,0.2,1.5,0.2c0,0-0.5-0.2-1.4-0.4c-0.9-0.2-2.1-0.6-3.4-1c-1.3-0.4-2.5-0.9-3.3-1.2
							C159.4,134.6,158.9,134.4,158.9,134.5z"/>
					</g>
				</g>
			</g>
		</g>
	</g>
	<g>
		<g>
			<path fill="#FFBF9D" d="M839.7,522.5c0,0-1.6-6.9-3.8-8.2c-1-0.6-2.4,1.5-2.1,3.3c0.3,1.8,1.1,7.8,1.1,7.8L839.7,522.5z"/>
		</g>
	</g>
	<g>
		<g>
			<g>
				<path fill="#FFBF9D" d="M802.4,560.5c0,0,2-7,2.5-8.1c0.5-1.1-1.3-6.6-0.5-7.9c0.8-1.3-0.5-3.4-2.9-1.9
					c-2.4,1.5-3.6,5.9-2.6,8.6c0,0-6.9-7.4-8.2-7.1c-1.3,0.3-2.1,1.1-2.3,2.7c0,0-3.3-2.2-4.4,2.2c0,0-2.5-0.7-2.8,3.4
					c0,0-1.8-0.5-1.9,2.5s-0.6,6.1,1.8,7.4c2.4,1.4,13.8,9.2,13.8,9.2l11.2,9l13.6-8.7L802.4,560.5z"/>
			</g>
		</g>
		<g>
			<g>
				<g>
					<path fill="#FF9A6C" d="M791.7,552.1c0.1-0.1-0.7-1.2-1.6-2.7c-0.9-1.4-1.6-2.7-1.7-2.6c-0.1,0.1,0.3,1.4,1.2,2.9
						C790.5,551.2,791.5,552.2,791.7,552.1z"/>
				</g>
			</g>
		</g>
		<g>
			<g>
				<g>

						<ellipse transform="matrix(0.3177 0.9482 -0.9482 0.3177 1059.783 -367.6037)" fill="#FF9A6C" cx="785.3" cy="552.5" rx="3.4" ry="0.3"/>
				</g>
			</g>
		</g>
		<g>
			<g>
				<g>

						<ellipse transform="matrix(0.1881 0.9821 -0.9821 0.1881 1180.1356 -317.5979)" fill="#FF9A6C" cx="782.2" cy="555" rx="2.7" ry="0.3"/>
				</g>
			</g>
		</g>
		<g>
			<g>
				<g>
					<path fill="#FF9A6C" d="M793.9,554.3c0.2,0,0.4-0.6,1.2-1c0.7-0.4,1.4-0.3,1.5-0.4c0-0.1-0.1-0.2-0.5-0.3
						c-0.3-0.1-0.8,0-1.3,0.2c-0.5,0.3-0.8,0.7-0.9,1C793.8,554.1,793.9,554.3,793.9,554.3z"/>
				</g>
			</g>
		</g>
		<g>
			<g>
				<g>
					<path fill="#FF9A6C" d="M790,557.3c0.2,0.1,0.5-0.5,1.3-0.9c0.7-0.4,1.4-0.3,1.5-0.5c0.1-0.2-0.8-0.5-1.7-0.1
						C790.1,556.4,789.8,557.3,790,557.3z"/>
				</g>
			</g>
		</g>
		<g>
			<g>
				<g>
					<path fill="#FF9A6C" d="M785,560.4c0.2,0,0.4-0.6,1.1-1.1c0.7-0.5,1.4-0.4,1.4-0.6c0-0.1-0.2-0.2-0.5-0.2
						c-0.3,0-0.8,0.1-1.2,0.3c-0.4,0.3-0.7,0.7-0.8,1C784.9,560.2,784.9,560.4,785,560.4z"/>
				</g>
			</g>
		</g>
	</g>
	<g>
		<g>
			<g>
				<g>
					<g>
						<path fill="#263238" d="M893.5,439.4c-4.1-1.3-8.6-0.8-12.3,1.3c-2.1-2.7-5.6-4.1-9-3.6c-3.3,0.5-6.3,3-7.5,6.2
							c-3.5-1.4-8,0.1-10,3.4c-1.9,3.3-1.1,8,1.9,10.5c-2.9,1.2-5.2,3.8-6,6.9c-0.8,3.1-0.2,6.5,1.7,9c-3.1,1.5-3.6,5.8-3.2,9.2
							c0.5,3.5,1.4,7.2-0.1,10.3c-1.2,2.4-3.6,3.9-5.3,6c-1.7,2.1-2.3,5.7,0,7.1c-3.9,0.5-6.8,4.7-6.1,8.5c0.7,3.9,4.9,6.7,8.7,5.8
							c-1.3,2.7-0.7,6.1,0.9,8.6c1.7,2.5,4.3,4.2,7.1,5.2c8,2.9,17.8,0.2,23.1-6.6l25.5-79.7C901.1,443.7,897.6,440.7,893.5,439.4z"
							/>
					</g>
				</g>
			</g>
		</g>
	</g>
	<g>
		<g>
			<g>
				<g>
					<g>
						<g>
							<g>
								<g>
									<g>
										<g>
											<g>
												<g>
													<g>
														<g>
															<g>
																<g>
																	<g>
																		<g>
																			<g>
																				<g>
																					<g>
																						<path fill="#455A64" d="M841,838l2.4,25.3c0,0-27.3,10.3-27.6,15.4l51.5,0.1l0-3.8l-2.2-13l-3.2-25.3L841,838
																							z"/>
																					</g>
																				</g>
																			</g>
																		</g>
																	</g>
																</g>
															</g>
														</g>
													</g>
												</g>
											</g>
										</g>
									</g>
								</g>
							</g>
						</g>
					</g>
				</g>
			</g>
		</g>
		<g>
			<g>
				<g>
					<g>
						<g>
							<g>
								<g>
									<g>
										<g>
											<g>
												<g>
													<g>
														<g>
															<g>
																<g>
																	<g>
																		<g>
																			<g>
																				<g>
																					<g>
																						<g>
																							<path fill="#E0E0E0" d="M858.9,859.4c1,0.3,1.7,1.4,1.5,2.5c-0.2,1-1.4,1.8-2.4,1.5c-1-0.3-1.9-1.6-1.6-2.6
																								c0.3-1,1.8-1.8,2.7-1.3"/>
																						</g>
																					</g>
																				</g>
																			</g>
																		</g>
																	</g>
																</g>
															</g>
														</g>
													</g>
												</g>
											</g>
										</g>
									</g>
								</g>
							</g>
						</g>
					</g>
				</g>
			</g>
		</g>
		<g>
			<g>
				<g>
					<g>
						<g>
							<g>
								<g>
									<g>
										<g>
											<g>
												<g>
													<g>
														<g>
															<g>
																<g>
																	<g>
																		<g>
																			<g>
																				<g>
																					<g>
																						<path fill="#263238" d="M867.4,878.9l0-3.8l-49.4,1c0,0-2.3,1-2.1,2.7L867.4,878.9z"/>
																					</g>
																				</g>
																			</g>
																		</g>
																	</g>
																</g>
															</g>
														</g>
													</g>
												</g>
											</g>
										</g>
									</g>
								</g>
							</g>
						</g>
					</g>
				</g>
			</g>
		</g>
		<g>
			<g>
				<g>
					<g>
						<g>
							<g>
								<g>
									<g>
										<g>
											<g>
												<g>
													<g>
														<g>
															<g>
																<g>
																	<g>
																		<g>
																			<g>
																				<g>
																					<g>
																						<g>
																							<path fill="#263238" d="M842.5,863c0,0.3,1.3,0.4,2.6,1.2c1.3,0.8,1.9,1.9,2.2,1.8c0.2-0.1-0.2-1.6-1.7-2.6
																								C844,862.5,842.5,862.8,842.5,863z"/>
																						</g>
																					</g>
																				</g>
																			</g>
																		</g>
																	</g>
																</g>
															</g>
														</g>
													</g>
												</g>
											</g>
										</g>
									</g>
								</g>
							</g>
						</g>
					</g>
				</g>
			</g>
		</g>
		<g>
			<g>
				<g>
					<g>
						<g>
							<g>
								<g>
									<g>
										<g>
											<g>
												<g>
													<g>
														<g>
															<g>
																<g>
																	<g>
																		<g>
																			<g>
																				<g>
																					<g>
																						<g>
																							<path fill="#263238" d="M837,865.4c-0.1,0.3,1.1,0.7,1.9,1.8c0.9,1.1,1.1,2.3,1.4,2.3c0.2,0,0.4-1.5-0.7-2.8
																								C838.5,865.2,837,865.1,837,865.4z"/>
																						</g>
																					</g>
																				</g>
																			</g>
																		</g>
																	</g>
																</g>
															</g>
														</g>
													</g>
												</g>
											</g>
										</g>
									</g>
								</g>
							</g>
						</g>
					</g>
				</g>
			</g>
		</g>
		<g>
			<g>
				<g>
					<g>
						<g>
							<g>
								<g>
									<g>
										<g>
											<g>
												<g>
													<g>
														<g>
															<g>
																<g>
																	<g>
																		<g>
																			<g>
																				<g>
																					<g>
																						<g>
																							<path fill="#263238" d="M833.9,872.1c0.2,0.1,0.6-1.2-0.1-2.7c-0.7-1.4-1.9-2-2-1.8c-0.1,0.2,0.6,1,1.2,2.2
																								C833.6,871,833.6,872.1,833.9,872.1z"/>
																						</g>
																					</g>
																				</g>
																			</g>
																		</g>
																	</g>
																</g>
															</g>
														</g>
													</g>
												</g>
											</g>
										</g>
									</g>
								</g>
							</g>
						</g>
					</g>
				</g>
			</g>
		</g>
		<g>
			<g>
				<g>
					<g>
						<g>
							<g>
								<g>
									<g>
										<g>
											<g>
												<g>
													<g>
														<g>
															<g>
																<g>
																	<g>
																		<g>
																			<g>
																				<g>
																					<g>
																						<g>
																							<path fill="#263238" d="M840.7,857c0.1,0.2,1.3-0.1,2.7,0c1.5,0.1,2.6,0.6,2.7,0.3c0.1-0.2-1-1.2-2.7-1.2
																								C841.8,855.9,840.6,856.8,840.7,857z"/>
																						</g>
																					</g>
																				</g>
																			</g>
																		</g>
																	</g>
																</g>
															</g>
														</g>
													</g>
												</g>
											</g>
										</g>
									</g>
								</g>
							</g>
						</g>
					</g>
				</g>
			</g>
		</g>
	</g>
	<g>
		<g>
			<g>
				<g>
					<g>
						<g>
							<g>
								<g>
									<g>
										<g>
											<g>
												<g>
													<g>
														<g>
															<g>
																<g>
																	<g>
																		<g>
																			<g>
																				<g>
																					<g>
																						<path fill="#455A64" d="M904.3,838.7l2.2,24.9c0,0-26.8,10-27.2,15L930,879l0-3.7l-2-12.8l-3-24.9
																							L904.3,838.7z"/>
																					</g>
																				</g>
																			</g>
																		</g>
																	</g>
																</g>
															</g>
														</g>
													</g>
												</g>
											</g>
										</g>
									</g>
								</g>
							</g>
						</g>
					</g>
				</g>
			</g>
		</g>
		<g>
			<g>
				<g>
					<g>
						<g>
							<g>
								<g>
									<g>
										<g>
											<g>
												<g>
													<g>
														<g>
															<g>
																<g>
																	<g>
																		<g>
																			<g>
																				<g>
																					<g>
																						<g>
																							<path fill="#E0E0E0" d="M921.8,859.8c1,0.3,1.7,1.4,1.5,2.5c-0.2,1-1.4,1.7-2.4,1.5c-1-0.3-1.9-1.6-1.5-2.6
																								c0.3-1,1.7-1.8,2.7-1.3"/>
																						</g>
																					</g>
																				</g>
																			</g>
																		</g>
																	</g>
																</g>
															</g>
														</g>
													</g>
												</g>
											</g>
										</g>
									</g>
								</g>
							</g>
						</g>
					</g>
				</g>
			</g>
		</g>
		<g>
			<g>
				<g>
					<g>
						<g>
							<g>
								<g>
									<g>
										<g>
											<g>
												<g>
													<g>
														<g>
															<g>
																<g>
																	<g>
																		<g>
																			<g>
																				<g>
																					<g>
																						<path fill="#263238" d="M930,879l0-3.7l-48.6,0.6c0,0-2.3,1-2.1,2.7L930,879z"/>
																					</g>
																				</g>
																			</g>
																		</g>
																	</g>
																</g>
															</g>
														</g>
													</g>
												</g>
											</g>
										</g>
									</g>
								</g>
							</g>
						</g>
					</g>
				</g>
			</g>
		</g>
		<g>
			<g>
				<g>
					<g>
						<g>
							<g>
								<g>
									<g>
										<g>
											<g>
												<g>
													<g>
														<g>
															<g>
																<g>
																	<g>
																		<g>
																			<g>
																				<g>
																					<g>
																						<g>
																							<path fill="#263238" d="M905.7,863.3c0,0.3,1.3,0.4,2.5,1.2c1.3,0.8,1.9,1.9,2.1,1.8c0.2,0-0.1-1.6-1.7-2.6
																								C907.2,862.8,905.6,863.1,905.7,863.3z"/>
																						</g>
																					</g>
																				</g>
																			</g>
																		</g>
																	</g>
																</g>
															</g>
														</g>
													</g>
												</g>
											</g>
										</g>
									</g>
								</g>
							</g>
						</g>
					</g>
				</g>
			</g>
		</g>
		<g>
			<g>
				<g>
					<g>
						<g>
							<g>
								<g>
									<g>
										<g>
											<g>
												<g>
													<g>
														<g>
															<g>
																<g>
																	<g>
																		<g>
																			<g>
																				<g>
																					<g>
																						<g>
																							<path fill="#263238" d="M900.3,865.6c-0.1,0.2,1,0.7,1.9,1.8c0.9,1.1,1.1,2.2,1.4,2.2c0.2,0,0.4-1.5-0.7-2.8
																								C901.7,865.5,900.3,865.3,900.3,865.6z"/>
																						</g>
																					</g>
																				</g>
																			</g>
																		</g>
																	</g>
																</g>
															</g>
														</g>
													</g>
												</g>
											</g>
										</g>
									</g>
								</g>
							</g>
						</g>
					</g>
				</g>
			</g>
		</g>
		<g>
			<g>
				<g>
					<g>
						<g>
							<g>
								<g>
									<g>
										<g>
											<g>
												<g>
													<g>
														<g>
															<g>
																<g>
																	<g>
																		<g>
																			<g>
																				<g>
																					<g>
																						<g>
																							<path fill="#263238" d="M897.1,872.2c0.2,0.1,0.6-1.2-0.1-2.6c-0.6-1.4-1.8-2-1.9-1.8
																								c-0.1,0.2,0.6,1,1.1,2.1C896.8,871.1,896.9,872.1,897.1,872.2z"/>
																						</g>
																					</g>
																				</g>
																			</g>
																		</g>
																	</g>
																</g>
															</g>
														</g>
													</g>
												</g>
											</g>
										</g>
									</g>
								</g>
							</g>
						</g>
					</g>
				</g>
			</g>
		</g>
		<g>
			<g>
				<g>
					<g>
						<g>
							<g>
								<g>
									<g>
										<g>
											<g>
												<g>
													<g>
														<g>
															<g>
																<g>
																	<g>
																		<g>
																			<g>
																				<g>
																					<g>
																						<g>
																							<path fill="#263238" d="M903.9,857.3c0.1,0.2,1.3-0.1,2.7,0c1.4,0.1,2.5,0.6,2.7,0.3
																								c0.1-0.2-0.9-1.1-2.6-1.2C905,856.3,903.8,857.1,903.9,857.3z"/>
																						</g>
																					</g>
																				</g>
																			</g>
																		</g>
																	</g>
																</g>
															</g>
														</g>
													</g>
												</g>
											</g>
										</g>
									</g>
								</g>
							</g>
						</g>
					</g>
				</g>
			</g>
		</g>
	</g>
	<g>
		<g>
			<g>
				<g>
					<g>
						<g>
							<path fill="#263238" d="M839.9,617.8c0,0-12.2,35.8-12.6,62.5c-0.4,26.6-0.8,69,4.6,115.7c5.5,46.7,8,65.5,8,65.5h27.8
								c0,0,2.9-29.3,2.5-55.5c-0.4-26.2-2.4-34.5,0-63.3c2.5-28.8,6.4-46.1,10.6-54.9c0,0,11.5-13.8,12.3-32.8
								c0.8-18.9-5.8-35.2-5.8-35.2L839.9,617.8z"/>
						</g>
					</g>
				</g>
			</g>
		</g>
		<g>
			<g>
				<g>
					<g>
						<g>
							<path fill="#263238" d="M864.6,668.1c0.5,1.4,8.7,60.2,14.7,86.1c6,25.9,12.7,32.8,13.9,53.8c1.3,24.2,7.9,53.6,7.9,53.6
								h29.6c0,0-4.2-44.8-8.3-79.8c-4.2-35-10.2-78.2-9.3-91.1c0.9-13,3.2-28.9,0-47.1c-3.2-18.1-10.2-22.9-10.2-22.9l-25.1-1.2
								L864.6,668.1z"/>
						</g>
					</g>
				</g>
			</g>
		</g>
		<g>
			<g>
				<g>
					<g>
						<g>
							<g>
								<path fill="#455A64" d="M892.5,634.5c0,0,0.2,0.3,0.5,0.9c0.3,0.6,0.6,1.5,1,2.8c0.7,2.5,1.1,6.2,1,10.7
									c-0.1,4.6-0.9,10-2.4,15.8c-0.8,2.9-1.8,5.9-3.2,8.9c-1.4,3-3.4,5.8-5.3,8.6c-4,5.6-6,12-7.5,17.8
									c-1.5,5.8-2.2,11.2-2.8,15.7c-0.5,4.5-0.9,8.2-1.1,10.7c-0.1,1.2-0.2,2.2-0.3,2.9c-0.1,0.7-0.1,1-0.1,1c0,0,0-0.4,0-1
									c0-0.7,0.1-1.7,0.2-2.9c0.2-2.5,0.4-6.2,0.9-10.7c0.5-4.5,1.2-9.9,2.7-15.8c0.7-2.9,1.6-6,2.8-9c0.6-1.5,1.3-3.1,2.1-4.6
									c0.8-1.5,1.7-3,2.7-4.4c2-2.8,3.9-5.6,5.3-8.5c1.4-2.9,2.4-5.9,3.2-8.8c1.6-5.8,2.3-11.1,2.5-15.7c0.2-4.5-0.2-8.2-0.8-10.7
									c-0.3-1.2-0.6-2.2-0.9-2.8C892.6,634.8,892.4,634.5,892.5,634.5z"/>
							</g>
						</g>
					</g>
				</g>
			</g>
		</g>
	</g>
	<g>
		<g>
			<g>
				<path fill="#FFBF9D" d="M836.1,524.6c0,0-5.2-3.1-6.8-2.4c-1.6,0.7-2.4,2.2-2.4,2.2s-3.2-0.6-3,3c0,0-3,0-2.8,3.5
					c0,0-2.1-0.5-1.6,2.5c0.4,3,3.6,9.4,4.4,10.3c1.7,2,2.8-0.4,2.5-1.5c-0.3-1.1-2-7-2-7s3.3,8.7,5.2,7.7c1.1-0.5,1.1-1.7,0.3-4.2
					c-0.5-1.7-1.5-5.1-1.5-5.1l2.9,5.5c0.5,1,2,1,2.4-0.1c0.1-0.4,0.2-0.9,0.1-1.5c-0.4-2.5-1.8-5.8-1.8-5.8l2.5,3.7
					c0.6,0.8,1.7,1,2.5,0.3c0.5-0.4,0.8-1,0.6-1.8c-0.5-1.9-4.1-7.7-4.1-7.7L836.1,524.6z"/>
			</g>
		</g>
	</g>
	<g>
		<g>
			<g>
				<g>
					<g>
						<g>
							<g>
								<g>
									<path fill="#FFBF9D" d="M905.6,461.5l0.3-4.3l-25.3-6.5c-7.8-1.3-16.8,6.2-17.8,14.1c-1.1,8.9-2.1,19.7-1.4,26.4
										c1.3,13.5,11.3,15.8,11.3,15.8l-0.7,13.2l29.1,2.1L905.6,461.5z"/>
								</g>
							</g>
						</g>
					</g>
				</g>
			</g>
			<g>
				<g>
					<g>
						<g>
							<g>
								<g>
									<path fill="#263238" d="M866,477.6c-0.1,0.9,0.6,1.7,1.5,1.8c0.9,0.1,1.7-0.5,1.8-1.4c0.1-0.9-0.6-1.7-1.5-1.8
										C866.9,476,866.1,476.7,866,477.6z"/>
								</g>
							</g>
						</g>
					</g>
				</g>
			</g>
			<g>
				<g>
					<g>
						<g>
							<g>
								<g>
									<path fill="#263238" d="M865.4,470.7c0.2,0.2,1.5-0.6,3.4-0.5c1.8,0.1,3.1,1.1,3.3,0.9c0.1-0.1-0.1-0.5-0.6-1
										c-0.5-0.5-1.5-0.9-2.6-1c-1.1-0.1-2.1,0.3-2.7,0.7C865.5,470.2,865.3,470.6,865.4,470.7z"/>
								</g>
							</g>
						</g>
					</g>
				</g>
			</g>
			<g>
				<g>
					<g>
						<g>
							<g>
								<g>
									<path fill="#263238" d="M882,478.6c-0.1,0.9,0.6,1.7,1.5,1.8c0.9,0.1,1.7-0.5,1.8-1.4c0.1-0.9-0.6-1.7-1.5-1.8
										C882.9,477,882.1,477.7,882,478.6z"/>
								</g>
							</g>
						</g>
					</g>
				</g>
			</g>
			<g>
				<g>
					<g>
						<g>
							<g>
								<g>
									<path fill="#263238" d="M883.2,472.2c0.2,0.2,1.5-0.6,3.4-0.5c1.8,0.1,3.1,1.1,3.3,0.9c0.1-0.1-0.1-0.5-0.6-1
										c-0.5-0.5-1.5-0.9-2.6-1c-1.1-0.1-2.1,0.3-2.7,0.7C883.4,471.7,883.1,472,883.2,472.2z"/>
								</g>
							</g>
						</g>
					</g>
				</g>
			</g>
			<g>
				<g>
					<g>
						<g>
							<g>
								<g>
									<path fill="#263238" d="M875.8,485.4c0-0.1-1.1-0.4-2.9-0.7c-0.5-0.1-0.9-0.2-1-0.5c-0.1-0.3,0.1-0.8,0.4-1.4
										c0.5-1.1,1-2.3,1.6-3.5c2.2-5,3.8-9.1,3.6-9.2c-0.2-0.1-2.2,3.9-4.4,8.9c-0.5,1.2-1,2.4-1.5,3.5c-0.2,0.5-0.5,1.1-0.4,1.8
										c0.1,0.4,0.4,0.6,0.7,0.7c0.3,0.1,0.6,0.1,0.8,0.2C874.7,485.4,875.8,485.5,875.8,485.4z"/>
								</g>
							</g>
						</g>
					</g>
				</g>
			</g>
			<g>
				<g>
					<g>
						<g>
							<g>
								<g>
									<path fill="#FF9A6C" d="M872.8,507.1c0,0,9.3,1.1,18.4-3.7c0,0-5,9.1-18.6,7L872.8,507.1z"/>
								</g>
							</g>
						</g>
					</g>
				</g>
			</g>
			<g>
				<g>
					<g>
						<g>
							<g>
								<g>
									<path fill="#263238" d="M883.7,465.8c0.2,0.5,2,0.3,4.1,0.5c2.1,0.2,3.9,0.9,4.2,0.4c0.1-0.2-0.2-0.7-0.9-1.2
										c-0.7-0.5-1.8-0.9-3.1-1.1c-1.3-0.1-2.5,0.1-3.2,0.4C884,465.2,883.6,465.6,883.7,465.8z"/>
								</g>
							</g>
						</g>
					</g>
				</g>
			</g>
			<g>
				<g>
					<g>
						<g>
							<g>
								<g>
									<g>
										<g>
											<g>
												<g>
													<g>
														<g>
															<g>
																<g>
																	<g>
																		<g>
																			<g>
																				<g>
																					<g>
																						<g>
																							<g>
																								<g>
																									<g>
																										<g>
																											<g>
																												<path fill="#263238" d="M865.8,466.2c0.3,0.4,1.6,0.1,3.1,0.2c1.5,0,2.8,0.5,3.1,0.1
																													c0.1-0.2,0-0.6-0.6-1.1c-0.5-0.4-1.4-0.8-2.5-0.9c-1,0-2,0.3-2.5,0.7
																													C865.9,465.5,865.7,465.9,865.8,466.2z"/>
																											</g>
																										</g>
																									</g>
																								</g>
																							</g>
																						</g>
																					</g>
																				</g>
																			</g>
																		</g>
																	</g>
																</g>
															</g>
														</g>
													</g>
												</g>
											</g>
										</g>
									</g>
								</g>
							</g>
						</g>
					</g>
				</g>
			</g>
			<g>
				<g>
					<g>
						<g>
							<g>
								<g>
									<path fill="#263238" d="M863,455.3c3-3.9,7.3-6.8,12-8l21.3,2.7l1.8,0c0.4-1.4,2.7-2.1,2.7-2.1c2-1.6,9-1.6,13.8,3.5
										c1.7,1.8,3,6.5,3,9.1c0,1-1,2.3-0.2,2.8c0.3,0.2,2.6,0.1,2.9,0.2c5.4,1.2,8.8,6.1,7.8,13.4c0,0.4-0.2,0.7-0.1,1.1
										c0.1,0.6,0.6,1,1,1.4c2.6,2.8,3.2,7.2,1.5,10.6c-0.5,1-1.3,2-1.5,3.2c-0.3,2.1,1.2,3.9,2.3,5.7c3.5,5.2,4.2,12.8,0.1,17.6
										c-1,1.2-2.3,2.2-2.6,3.7c-0.2,0.7-0.1,1.5-0.1,2.2c0,3.8-2,8.1-5.6,8.9c-2,0.4-4.5-0.1-6,1.4c-0.6,0.7-0.9,1.6-1.3,2.4
										c-1.5,3.1-5.5,4.9-8.8,3.8c-3.3-1-4.4-14.6-3.9-18.1c-4-1.5-7-1.7-6.8-6.1c0,0,0.6-7.4-0.6-11c-1.2-3.6,1.2-11.3,2.6-15.1
										c1.4-3.7-0.3-12.4-0.6-15.9c-0.1-0.6,0.1-1.7,0.3-3l0,0c0,0,0,0,0,0c0.1-0.8,0.3-1.8,0.6-2.8c0.1-0.9,0.9-6,0.8-6.9
										c-0.1-3.3-4.1-1.5-7.1-0.5c-0.7,0.3-1.5,0.4-2.3,0.4c-2.5,0.1-5-1.1-6.6-3.2c-2.9,3.1-7.6,4.4-11.6,3.2
										c-1.6,2.3-3.3,4.7-5.5,6.5c-2.2,1.8-5,3-7.8,2.7C858.4,464.2,860,459.2,863,455.3z"/>
								</g>
							</g>
						</g>
					</g>
				</g>
			</g>
			<g>
				<g>
					<g>
						<g>
							<g>
								<g>
									<path fill="#FF9A6C" d="M877.1,489.9c0.6-0.9,1.7-1.4,2.8-1.4c0.8,0,1.6,0.4,2.1,1c0.5,0.6,0.6,1.5,0.2,2.1
										c-0.4,0.7-1.4,0.9-2.3,0.7c-0.9-0.2-1.6-0.7-2.3-1.3c-0.2-0.1-0.4-0.3-0.5-0.5C877,490.4,876.9,490.1,877.1,489.9"/>
								</g>
							</g>
						</g>
					</g>
				</g>
			</g>
			<g>
				<g>
					<g>
						<g>
							<g>
								<g>
									<path fill="#263238" d="M881.5,486.5c-0.3,0-0.2,2-1.8,3.4c-1.6,1.5-3.7,1.4-3.7,1.6c0,0.1,0.5,0.4,1.4,0.3
										c0.9,0,2.1-0.4,3.1-1.3c1-0.9,1.3-2.1,1.4-2.9C881.9,487,881.6,486.5,881.5,486.5z"/>
								</g>
							</g>
						</g>
					</g>
				</g>
			</g>
		</g>
		<g>
			<g>
				<g>
					<g>
						<g>
							<g>
								<path fill="#455A64" d="M920.3,523.1l-48-6.8c0,0-16.7,23-22,49.3c-5.3,26.3-11.3,52.6-11.3,52.6l46.8,5.8
									c4.9,0.6,9.8,0.5,14.7-0.2l4.9-0.7l-4-16.7c6.7-16.9,11.6-31.3,14.5-43.3C922.1,537.3,920.3,523.1,920.3,523.1z"/>
							</g>
						</g>
					</g>
				</g>
			</g>
			<g>
				<g>
					<g>
						<g>
							<g>
								<g>
									<g>
										<path fill="#455A64" d="M805.7,559.5L827,574c0,0,13.7-24.3,17.6-33.1c3.9-8.7,10.2-19.7,17-23c6.8-3.3,17.7-0.7,17.7-0.7
											l-7.1,29l-11.3,25.7c0,0-12.7,25.6-20.2,30.8c-7.5,5.1-16.5,2-20.8-0.9c-4.3-2.9-25.9-27.1-25.9-27.1L805.7,559.5z"/>
									</g>
								</g>
							</g>
						</g>
					</g>
				</g>
				<g>
					<g>
						<g>
							<g>
								<g>
									<g>

											<ellipse transform="matrix(0.1912 0.9815 -0.9815 0.1912 1240.0537 -342.7884)" fill="#263238" cx="828" cy="581.1" rx="6.5" ry="0.3"/>
									</g>
								</g>
							</g>
						</g>
					</g>
				</g>
				<g opacity="0.3">
					<g>
						<g>
							<g>
								<g>
									<g>
										<path d="M856.4,579.5c4.8-2.1,9.7-6.3,12-11.1c2.3-4.8,3.3-11.9,1.9-17.1C866,560.1,860.6,571.9,856.4,579.5z"/>
									</g>
								</g>
							</g>
						</g>
					</g>
				</g>
			</g>
		</g>
		<g opacity="0.3">
			<g>
				<g>
					<g>
						<g>
							<g>
								<path d="M918.7,528.9l-31.6-2.9c-1.2,2.7,0.5,6.2,3.3,7c-1.7,3-1.8,6.9-0.1,10c1.6,3.1,4.8,5.2,8.3,5.5
									c0.8,0.1,1.7,0,2.5,0.3c1.8,0.6,2.6,2.6,3.6,4.1c1.4,2.1,3.5,3.7,5.9,4.1c2.4,0.5,5.1-0.3,6.7-2.2c1.5-1.9,1.8-4.5,1.9-7
									C919.5,541.6,919.3,535.2,918.7,528.9z"/>
							</g>
						</g>
					</g>
				</g>
			</g>
		</g>
		<g>
			<g>
				<g>
					<g>
						<g>
							<path fill="#263238" d="M925.9,509.2l-27-30.4c1,7.7-1.9,15.4-5.3,22.4c-2,4-4.2,8.7-2.1,12.6c-1.7,1.9-3.4,3.8-4.5,6.2
								c-1.1,2.3-1.4,5.1-0.3,7.4c1.1,2.3,3.9,3.8,6.3,2.9c-1.1,3.1-0.2,6.8,2.2,9.1c2.4,2.2,6.2,2.7,9.1,1.3c0.7,3.1,2.4,6.1,5,8
								c2.6,1.8,6.3,2.2,9,0.6c2.7-1.6,4.1-5.5,2.7-8.4c5.9-1.3,9.7-7.8,9.8-14S928.6,514.7,925.9,509.2z"/>
						</g>
					</g>
				</g>
			</g>
		</g>
		<g>
			<g>
				<g>
					<g>
						<g>
							<g>
								<path fill="#455A64" d="M870.1,459c0,0-0.1,0.1-0.4,0.2c-0.3,0.1-0.8,0.2-1.4,0.1c-1.2-0.1-3-0.9-4.1-2.8
									c-0.6-1-0.8-2.2-0.6-3.5c0.2-1.3,0.9-2.6,1.9-3.6c1-1.1,2.3-1.9,3.9-2.3c1.5-0.4,3.2-0.3,4.8,0c0.9,0.2,1.8,0.6,2.6,0.9
									l-0.4,0.2c1.1-2.8,3.4-4.9,5.7-5.9c2.3-1.1,4.7-1.1,6.5-0.7c1.8,0.4,3.2,1.2,4,1.8c0.4,0.3,0.7,0.6,0.9,0.8
									c0.2,0.2,0.3,0.3,0.3,0.3c0,0-0.4-0.3-1.3-0.9c-0.8-0.5-2.2-1.2-4-1.6c-1.8-0.3-4-0.3-6.2,0.8c-2.2,1-4.3,3-5.3,5.6
									l-0.1,0.3l-0.3-0.1c-0.8-0.4-1.6-0.7-2.5-0.9c-1.5-0.4-3.1-0.4-4.5-0.1c-1.4,0.3-2.7,1.1-3.6,2.1c-0.9,1-1.5,2.2-1.8,3.3
									c-0.2,1.2,0,2.3,0.4,3.2c1,1.8,2.6,2.6,3.7,2.8C869.5,459.3,870.1,459,870.1,459z"/>
							</g>
						</g>
					</g>
				</g>
			</g>
		</g>
		<g>
			<g>
				<g>
					<g>
						<g>
							<g>
								<path fill="#455A64" d="M927.3,478.2c0,0,0.2-0.6,0.5-1.6c0.3-1,0.5-2.6,0.2-4.6c-0.3-1.9-1.2-4.2-3.2-5.9
									c-1.9-1.7-4.7-2.9-7.7-2.5l-0.5,0l0.1-0.4c0.3-0.9,0.4-1.8,0.5-2.8c0.2-3.4-1-6.6-2.9-8.8c-1.9-2.3-4.4-3.4-6.5-3.9
									c-2.2-0.5-4-0.4-5.2-0.2c-1.2,0.2-1.9,0.5-1.9,0.4c0,0,0.1-0.1,0.5-0.2c0.3-0.1,0.8-0.3,1.4-0.4c1.2-0.3,3.1-0.5,5.3,0
									c2.2,0.5,4.8,1.6,6.8,4c2,2.3,3.3,5.7,3.1,9.2c-0.1,1-0.2,2-0.5,3l-0.3-0.4c3.2-0.3,6.2,0.9,8.2,2.8c2,1.8,3,4.3,3.2,6.2
									c0.3,2-0.1,3.6-0.4,4.7c-0.2,0.5-0.4,0.9-0.5,1.2C927.4,478,927.4,478.2,927.3,478.2z"/>
							</g>
						</g>
					</g>
				</g>
			</g>
		</g>
		<g>
			<g>
				<g>
					<g>
						<g>
							<g>
								<path fill="#455A64" d="M901.6,530.3c0,0-0.1-0.1-0.4-0.2c-0.2-0.2-0.6-0.4-1-0.8c-0.8-0.8-1.8-2.1-2.5-4
									c-0.7-1.9-1-4.4-0.2-7c0.8-2.6,2.6-5.1,5.3-6.6c1.1-0.6,2.2-1,3.3-1.2L906,511c-1.8-2-2.4-4.7-2.1-7c0.3-2.3,1.6-4,2.8-5.1
									c1.3-1.1,2.6-1.6,3.4-1.7c0.4-0.1,0.8-0.1,1-0.1c0.2,0,0.4,0,0.4,0c0,0.1-0.5,0.1-1.3,0.3c-0.8,0.3-2,0.8-3.2,1.8
									c-1.2,1.1-2.3,2.7-2.6,4.9c-0.3,2.1,0.3,4.6,2,6.5l0.4,0.4l-0.5,0.1c-1.1,0.2-2.1,0.6-3.1,1.2c-2.5,1.4-4.3,3.8-5.1,6.2
									c-0.8,2.4-0.5,4.8,0.1,6.6c0.6,1.8,1.5,3.1,2.2,4C901.1,529.9,901.6,530.2,901.6,530.3z"/>
							</g>
						</g>
					</g>
				</g>
			</g>
		</g>
		<g>
			<g>
				<g>
					<g>
						<g>
							<path fill="#263238" d="M901.1,463.3l-0.8-3.9c-2.9,5.5-3.8,12-2.7,18.1c0.5,2.8,1.5,5.9,0.2,8.5c-0.8,1.8-2.5,3-3.5,4.7
								c-1.2,2.2-0.3,7.9-0.6,9c-0.7,2.6-3.2,4.2-3.7,7.3c-0.6,3.1,0.2,6.8,2.9,8.3c5.2-8.6,10.4-17.6,11.7-27.6
								C905.5,479.6,903.6,471.2,901.1,463.3z"/>
						</g>
					</g>
				</g>
			</g>
		</g>
		<g>
			<g>
				<g>
					<g>
						<g>
							<g>
								<path fill="#455A64" d="M916.8,484c0,0-0.2,0-0.4,0c-0.3,0-0.7,0-1.3-0.1c-1.1-0.2-2.7-0.6-4.2-1.9
									c-0.8-0.7-1.4-1.6-1.8-2.7c-0.4-1.1-0.5-2.5,0.1-3.8c0.5-1.2,1.7-2.4,3.2-2.7c0.7-0.1,1.6-0.1,2.3,0.3
									c0.7,0.4,1.2,1.3,1.1,2.2c-0.1,0.5-0.3,0.9-0.7,1.1c-0.4,0.3-0.8,0.4-1.2,0.4c-0.8,0-1.5-0.2-2.2-0.5
									c-1.3-0.7-2.4-1.6-3.2-2.6c-1.7-2-2.5-4.4-2.6-6.4c-0.1-2,0.4-3.6,0.8-4.6c0.2-0.5,0.4-0.9,0.6-1.1c0.2-0.2,0.2-0.4,0.3-0.4
									c0,0-0.3,0.6-0.6,1.6c-0.4,1-0.7,2.6-0.6,4.5c0.1,1.9,0.9,4.2,2.5,6.1c0.8,1,1.9,1.8,3.1,2.4c0.6,0.3,1.2,0.5,1.9,0.5
									c0.6,0,1.2-0.4,1.3-1c0.1-0.6-0.3-1.2-0.8-1.5c-0.5-0.3-1.2-0.4-1.9-0.3c-1.3,0.2-2.3,1.2-2.8,2.3c-0.5,1.1-0.5,2.4-0.1,3.4
									c0.3,1,1,1.9,1.7,2.6c1.4,1.3,3,1.8,4,2C916.2,483.9,916.8,483.9,916.8,484z"/>
							</g>
						</g>
					</g>
				</g>
			</g>
		</g>
		<g>
			<g>
				<g>
					<path fill="#455A64" d="M928.5,493.9c-0.1-0.1,0.5-0.9,1.2-2.4c0.7-1.5,1.6-3.6,1.6-6c0-2.4-0.9-4.6-2-5.8c-1-1.2-2-1.6-2-1.7
						c0,0,0.3,0,0.7,0.2c0.4,0.2,1,0.6,1.6,1.2c1.2,1.2,2.3,3.4,2.2,6.1c-0.1,2.6-1,4.8-1.9,6.2C929.2,493.2,928.5,494,928.5,493.9z
						"/>
				</g>
			</g>
		</g>
		<g>
			<g>
				<g>
					<g>
						<g>
							<g>
								<path fill="#263238" d="M900.6,607.2c0,0.1-1.2,0.5-3.2,0.9c-2,0.4-4.8,0.9-7.9,1c-3.1,0.1-5.9-0.1-8-0.4
									c-2-0.3-3.3-0.6-3.2-0.7c0-0.1,1.3,0.1,3.3,0.2c2,0.2,4.8,0.3,7.9,0.2c3.1-0.1,5.9-0.5,7.9-0.8
									C899.4,607.4,900.6,607.1,900.6,607.2z"/>
							</g>
						</g>
					</g>
				</g>
			</g>
		</g>
	</g>
	<g>
		<g>
			<g>
				<path fill="#263238" d="M870.7,550.5c0,0-0.1,0.3-0.3,0.8c-0.2,0.5-0.5,1.3-0.9,2.2c-0.9,1.9-2.2,4.7-3.8,8.1
					c-3.3,6.8-8,16.1-13.3,26.2c-1.4,2.5-2.6,5-4.1,7.3c-1.5,2.3-3.1,4.4-5,6.1c-1.8,1.7-3.9,3-6,3.8c-2.1,0.8-4.2,1-6.1,0.9
					c-3.8-0.2-6.6-1.5-8.5-2.4c-0.9-0.5-1.7-0.9-2.1-1.1c-0.5-0.3-0.7-0.4-0.7-0.5c0,0,0.3,0.1,0.8,0.4c0.5,0.2,1.2,0.6,2.2,1
					c1.9,0.8,4.7,2,8.4,2.2c1.8,0.1,3.9-0.2,5.9-0.9c2-0.8,4-2,5.8-3.7c1.8-1.7,3.4-3.7,4.8-6c1.4-2.3,2.7-4.8,4-7.3
					c5.3-10.2,10-19.4,13.4-26.1c1.7-3.3,3-6,4-8c0.4-0.9,0.8-1.7,1-2.2C870.5,550.7,870.7,550.5,870.7,550.5z"/>
			</g>
		</g>
	</g>
</g>
<g>
	<g>
		<g>
			<g>
				<path fill="#E0E0E0" d="M685.7,869H651v-79.3h34.3c3.1,0,5.6,2.5,5.6,5.7v68.3C691,866.6,688.6,869,685.7,869z"/>
			</g>
		</g>
		<g>
			<g>
				<g>
					<path fill="#263238" d="M685.7,869c0-0.1,0.9,0.1,2.2-0.6c0.7-0.3,1.5-0.9,2.1-1.9c0.3-0.5,0.5-1,0.7-1.7
						c0.1-0.6,0.1-1.3,0.1-2.1c0-6-0.1-14.6-0.1-25.2c0-10.6,0-23.3-0.1-37.3c0-1.7,0-3.6,0-5.3c-0.1-1.7-1.1-3.4-2.6-4.2
						c-0.7-0.5-1.6-0.7-2.5-0.8c-0.9,0-1.8,0-2.7,0c-1.9,0-3.7,0-5.6,0c-7.5,0-15.4,0-23.4,0c-1,0-2,0-2.9,0l0.3-0.3
						c0,30.9-0.1,58.8-0.1,79.3l-0.2-0.2c10.7,0,19.4,0.1,25.4,0.1c3,0,5.3,0,6.9,0.1c0.8,0,1.4,0,1.8,0
						C685.5,869,685.7,869,685.7,869s-0.2,0-0.6,0c-0.4,0-1,0-1.8,0c-1.6,0-3.9,0-6.9,0.1c-6,0-14.7,0.1-25.4,0.1l-0.2,0l0-0.2
						c0-20.5-0.1-48.4-0.1-79.3l0-0.3h0.3c0.9,0,1.9,0,2.9,0c8,0,15.8,0,23.4,0c1.9,0,3.8,0,5.6,0c0.9,0,1.8,0,2.8,0
						c1,0,1.9,0.3,2.7,0.9c1.6,1,2.7,2.8,2.8,4.7c0,1.8,0,3.6,0,5.3c0,14,0,26.7-0.1,37.3c0,10.6-0.1,19.2-0.1,25.2
						c0,0.7,0,1.5-0.2,2.1c-0.2,0.7-0.4,1.2-0.7,1.7c-0.6,1-1.5,1.6-2.2,1.9c-0.7,0.3-1.3,0.4-1.7,0.5
						C685.9,869,685.7,869,685.7,869z"/>
				</g>
			</g>
		</g>
	</g>
	<g>
		<g>
			<g>
				<path fill="#EBEBEB" d="M660.9,789.4h-17.9v-30.2h2.6c3.1,0,5.6-2.6,5.6-5.7c0-3.2-2.5-5.7-5.6-5.7h-54.3
					c-3.1,0-5.6,2.6-5.6,5.7c0,3.2,2.5,5.7,5.6,5.7h2.6v30.2h-45.4c-3,0-5.5,2.5-5.5,5.6v68.5c0,3.1,2.5,5.6,5.5,5.6h112.4
					c3,0,5.5-2.5,5.5-5.6v-68.5C666.4,791.9,663.9,789.4,660.9,789.4z"/>
			</g>
		</g>
		<g>
			<g>
				<g>
					<path fill="#263238" d="M660.9,789.4c0,0,0.4-0.1,1.3,0.1c0.8,0.2,2.1,0.7,3.2,2c0.5,0.7,0.9,1.6,1.1,2.6
						c0.1,1.1,0,2.2,0.1,3.4c0,2.5,0,5.3,0,8.5c0,12.8,0.1,31.4,0.1,54.3c0,0.7,0,1.4,0,2.2c0,0.7,0,1.5-0.2,2.2
						c-0.3,1.5-1.3,2.8-2.6,3.6c-0.7,0.4-1.4,0.7-2.2,0.8c-0.8,0.1-1.5,0-2.3,0.1c-1.5,0-3,0-4.6,0c-6.2,0-12.6,0-19.3,0
						c-13.3,0-27.5,0-42.5,0c-7.5,0-15.1,0-23,0c-3.9,0-7.9,0-11.9,0c-2,0-4,0-6,0c-1,0-2,0-3,0c-1,0-2.1-0.1-3.1-0.5
						c-2-0.9-3.4-3-3.4-5.2c0-2.1,0-4.2,0-6.3c0-4.2,0-8.4,0-12.7c0-8.5,0-17.1,0-25.9c0-6.9,0-13.7,0-20.4l0-2.5
						c0-0.8,0-1.7,0.2-2.6c0.5-1.7,1.8-3.1,3.4-3.8c0.8-0.3,1.7-0.5,2.5-0.4l2.4,0c1.6,0,3.3,0,4.9,0c13,0,25.6,0,37.7,0l-0.3,0.3
						c0-10.4,0-20.5,0-30.2l0.3,0.3l-1.8,0c-0.6,0-1.2,0-1.8-0.1c-1.2-0.2-2.4-0.8-3.2-1.7c-1.7-1.8-2.2-4.7-1-6.8
						c0.5-1.1,1.4-2,2.4-2.6c0.5-0.3,1.1-0.5,1.7-0.6c0.6-0.1,1.2-0.1,1.7-0.1c2.3,0,4.5,0,6.7,0c8.8,0,17.2,0,25.2,0
						c8,0,15.5,0,22.6,0.1c1.8,0.2,3.5,1.4,4.3,2.9c0.9,1.5,1,3.5,0.4,5.1c-0.6,1.6-1.9,2.9-3.4,3.4c-0.8,0.3-1.6,0.4-2.4,0.4
						c-0.8,0-1.5,0-2.3,0l0.2-0.2c0,12.5,0,22.6-0.1,30.2l-0.1-0.1c5.9,0,10.3,0,13.4,0.1c1.5,0,2.6,0,3.4,0
						C660.5,789.3,660.9,789.4,660.9,789.4s-0.4,0-1.2,0c-0.8,0-1.9,0-3.4,0c-3,0-7.5,0-13.4,0.1l-0.1,0l0-0.1
						c0-7.7,0-17.7-0.1-30.2l0-0.2l0.2,0c0.8,0,1.5,0,2.3,0c0.8,0,1.5-0.1,2.2-0.4c1.4-0.5,2.6-1.7,3.2-3.2c0.6-1.5,0.5-3.3-0.4-4.7
						c-0.8-1.4-2.3-2.5-4-2.7c-7-0.1-14.6,0-22.5,0c-8,0-16.4,0-25.2,0c-2.2,0-4.4,0-6.7,0c-0.6,0-1.1,0-1.6,0.1
						c-0.5,0.1-1,0.3-1.5,0.6c-0.9,0.5-1.7,1.4-2.2,2.4c-1,2-0.6,4.6,1,6.2c0.8,0.8,1.8,1.4,2.9,1.6c0.5,0.1,1.1,0.1,1.7,0.1l1.8,0
						l0.3,0l0,0.3c0,9.7,0,19.8,0,30.2l0,0.3l-0.3,0c-12.2,0-24.8,0-37.7,0c-1.6,0-3.2,0-4.9,0l-2.4,0c-0.8,0-1.6,0.1-2.3,0.4
						c-1.4,0.6-2.6,1.9-3,3.4c-0.2,0.8-0.2,1.5-0.2,2.4l0,2.5c0,6.7,0,13.5,0,20.4c0,8.7,0,17.4,0,25.9c0,4.3,0,8.5,0,12.7
						c0,2.1,0,4.2,0,6.3c0,2,1.3,3.8,3.1,4.6c0.9,0.4,1.8,0.5,2.9,0.5c1,0,2,0,3,0c2,0,4,0,6,0c4,0,8,0,11.9,0c7.8,0,15.5,0,23,0
						c15,0,29.2,0,42.5,0c6.7,0,13.1,0,19.3,0c1.5,0,3.1,0,4.6,0c0.8,0,1.5,0,2.2-0.1c0.7-0.1,1.4-0.3,2-0.7c1.2-0.7,2.1-2,2.4-3.4
						c0.2-0.7,0.1-1.4,0.1-2.1c0-0.7,0-1.4,0-2.2c0-22.9,0.1-41.4,0.1-54.3c0-3.2,0-6,0-8.5c0-1.2,0.1-2.4,0-3.4
						c-0.1-1-0.5-1.9-1-2.6c-1-1.3-2.3-1.9-3.1-2.1C661.3,789.4,660.9,789.4,660.9,789.4z"/>
				</g>
			</g>
		</g>
	</g>
	<g>
		<g>
			<g>
				<path fill="#263238" d="M636,758.9c0,0.2-11.3,0.3-25.2,0.3c-13.9,0-25.2-0.1-25.2-0.3c0-0.2,11.3-0.3,25.2-0.3
					C624.7,758.6,636,758.7,636,758.9z"/>
			</g>
		</g>
	</g>
	<g>
		<g>
			<path fill="#263238" d="M655.9,862.2H552.7c-2.4,0-4.3-1.9-4.3-4.3v-21.8h111.8v21.8C660.2,860.2,658.3,862.2,655.9,862.2z"/>
		</g>
	</g>
	<g>
		<g>
			<g>
				<ellipse fill="#263238" cx="660.2" cy="819.9" rx="0.3" ry="18.7"/>
			</g>
		</g>
	</g>
	<g>
		<g>
			<g>
				<ellipse fill="#263238" cx="548.6" cy="821.7" rx="0.3" ry="18.5"/>
			</g>
		</g>
	</g>
	<g>
		<g>
			<path fill="#263238" d="M681.3,862.2H671V836h15.1v21.5C686.1,860.1,683.9,862.2,681.3,862.2z"/>
		</g>
	</g>
</g>
<text transform="matrix(0.9877 0 0 1 568.1222 100.6991)" fill="#343A40" font-family="Montserrat" font-weight="600" font-size="52.6148">AUTHORS</text>
<g>
	<text transform="matrix(0.9877 0 0 1 261.9212 263.6692)"><tspan x="0" y="0" fill="#253137" font-style="italic" font-family="Montserrat" font-weight="500" font-size="23.623">An alleged scientific discovery has no merit unless it can be explained to a barmaid.</tspan><tspan x="21.7" y="36.1" fill="#253137" font-style="italic" font-family="Montserrat" font-weight="500" font-size="23.623">                                                                                                                </tspan><tspan x="733.4" y="36.1" fill="#253137" font-family="Montserrat" font-weight="600" font-style="italic" font-size="23.623">Lord Ernest Rutherford</tspan></text>
</g>
<g>
	<path fill="#E0E0E0" d="M1128.3,648.9c0.9-2.2,2.5-3,4.2-3c1.3,0,2,0.3,2.6,0.9c0.6,0.7,0.9,1.6,0.9,3.3v6.6c0,1.4,0.5,1.8,1.9,1.8
		v0.5c-0.6,0-1.9-0.1-2.9-0.1c-1.1,0-2.2,0.1-2.7,0.1v-0.5c1.2,0,1.6-0.4,1.6-1.8v-7.2c0-1.5-0.2-2.9-2-2.9c-2,0-3.4,1.9-3.4,4.5
		v5.5c0,1.4,0.4,1.8,1.6,1.8v0.5c-0.5,0-1.7-0.1-2.7-0.1c-1.1,0-2.4,0.1-2.9,0.1v-0.5c1.3,0,1.9-0.4,1.9-1.8v-14.1
		c0-1.5-0.4-2.2-1.9-2.2v-0.5c0.5,0,1,0.1,1.5,0.1c1,0,1.8-0.1,2.5-0.3V648.9z"/>
</g>
<g>
	<path fill="#E0E0E0" d="M1178.3,571.1c0.4,0.6,0.7,0.9,1.2,0.9v0.4c-0.3,0-0.9-0.1-1.4-0.1c-0.7,0-1.6,0.1-2,0.1V572
		c0.3,0,0.5-0.1,0.5-0.3c0-0.1,0-0.2-0.1-0.3l-2-3c-0.4-0.6-0.7-0.8-1.3-0.8v3.1c0,1,0.3,1.3,1.2,1.3v0.4c-0.4,0-1.2-0.1-2-0.1
		c-0.8,0-1.7,0.1-2.2,0.1V572c1,0,1.4-0.3,1.4-1.3v-10.3c0-1.1-0.3-1.6-1.4-1.6v-0.4c0.4,0,0.7,0.1,1.1,0.1c0.7,0,1.3-0.1,1.8-0.3
		v8.9c0.7-0.1,1.1-0.3,1.5-0.7l1.3-1.4c0.4-0.4,0.6-0.7,0.6-1c0-0.4-0.6-0.6-1.3-0.6v-0.4c0.6,0,1.5,0.1,2,0.1c0.6,0,1.2,0,1.5-0.1
		v0.4c-0.6,0.1-1.1,0.3-1.6,0.8l-2.2,2.3L1178.3,571.1z"/>
</g>
</svg>
