<?xml version="1.0" encoding="utf-8"?>
<!-- Generator: Adobe Illustrator 18.1.1, SVG Export Plug-In . SVG Version: 6.00 Build 0)  -->
<svg version="1.1" id="Layer_1" xmlns="http://www.w3.org/2000/svg" xmlns:xlink="http://www.w3.org/1999/xlink" x="0px" y="0px"
	 viewBox="0 0 120 120" enable-background="new 0 0 120 120" xml:space="preserve">
<path fill="#343A40" d="M112.3,73.9l-9.5-7.8c0.3-2.2,0.6-4.4,0.6-6.7c0-3.1-0.3-6.1-0.9-9l0,0l9.9-6.2c1.4-1.2,1.8-3.3,0.8-4.9
	l-9.3-16.2c-0.9-1.6-2.9-2.4-4.7-1.7l-11.9,4.2c-3.7-3.1-7.6-5.5-12.2-7.1l0,0L73.2,6.9c-0.3-1.8-1.9-3.2-3.7-3.3L50.9,3.2
	c-1.9,0-3.5,1.3-3.9,3.1l-2.6,12.5c-4.5,1.7-8.6,4.2-12.3,7.2l0,0l-11-4.1c-1.8-0.7-3.7,0-4.7,1.6L6.7,39.5c-1,1.6-0.7,3.7,0.7,4.9
	l9.6,8.5l0.1-0.1c-0.3,2.2-0.6,4.4-0.6,6.6c0,3,0.3,5.9,0.9,8.7l0,0l-9.9,6.1c-1.4,1.2-1.7,3.3-0.8,4.9l9.5,16
	c1,1.6,2.9,2.3,4.7,1.7L32,92.8c4.1,3.4,8.8,6.1,14,7.9l0,0l0.8,11.6c0.4,1.8,2,3.2,3.8,3.1l18.6-0.1c1.9,0,3.5-1.4,3.8-3.2l2.2-12
	c5.2-2,9.9-4.9,13.9-8.6l0,0l10.4,5.3c1.8,0.6,3.7-0.2,4.6-1.8l9-16.3C114.1,77.2,113.7,75.1,112.3,73.9z M59.7,80.8
	c-11.3,0-20.5-9.6-20.5-21.5s9.2-21.5,20.5-21.5s20.5,9.6,20.5,21.5S71.1,80.8,59.7,80.8z"/>
</svg>
