<?xml version="1.0" encoding="utf-8"?>
<!-- Generator: Adobe Illustrator 18.1.1, SVG Export Plug-In . SVG Version: 6.00 Build 0)  -->
<svg version="1.1" id="Layer_1" xmlns="http://www.w3.org/2000/svg" xmlns:xlink="http://www.w3.org/1999/xlink" x="0px" y="0px"
	 viewBox="0 0 120 120" enable-background="new 0 0 120 120" xml:space="preserve">
<g id="Layer_1_2_">
	<g>
		<path fill="#343A40" d="M58.8,3c0.7,0,1.5,0,2.2,0C65.6,3,83.7,4.1,84.6,25.5c0.5,11.4-2.3,19.4-5.4,24.7c-4.3,7.4-9.8,12-19.6,12
			c-7.2,0-16.9-5.7-20.9-20.3C30.2,10.7,49.3,2.9,58.8,3z"/>
		<path fill="#343A40" d="M41.5,64.1c0,0-5.8,2.8-10,4s-8.3,3.4-11.3,12.5c-2.2,6.8-3.4,19.5-3.8,25.5c-0.1,1.9,1,3.7,2.8,4.3l5.9,2
			c21.8,7.5,45.4,7.9,67.4,1l8.3-2.6c2.6-0.7,4.3-3.2,4-5.9l-0.8-8.2c-0.6-5.5-1.6-10.9-3.2-16.1l-0.5-1.7c0,0-1.7-7.9-10.9-10.8
			c-7.8-2.5-9.9-4-9.9-4s-5.5,8.5-19,8.5C47,72.6,41.5,64.1,41.5,64.1z"/>
	</g>
</g>
</svg>
