<?xml version="1.0" encoding="utf-8"?>
<!-- Generator: Adobe Illustrator 18.1.1, SVG Export Plug-In . SVG Version: 6.00 Build 0)  -->
<svg version="1.1" id="Layer_1" xmlns="http://www.w3.org/2000/svg" xmlns:xlink="http://www.w3.org/1999/xlink" x="0px" y="0px"
	 viewBox="0 0 240 240" enable-background="new 0 0 240 240" xml:space="preserve">
<path fill="#F7FAFB" d="M222.3,233.3H16.1c-7.6,0-13.8-6.2-13.8-13.8v-199C2.3,13,8.5,6.8,16.1,6.8h206.2c7.6,0,13.8,6.2,13.8,13.8
	v199C236.1,227.2,229.9,233.3,222.3,233.3z"/>
<g id="Layer_1_1_">
	<path fill="#ADB5BD" d="M115.3,37.7c1.2,0,2.3,0,3.5,0c7.2-0.1,35.5,1.7,36.9,35.2c0.8,17.8-3.6,30.3-8.4,38.7
		c-6.8,11.6-15.4,18.8-30.7,18.8c-11.3,0-26.5-9-32.7-31.9C70.6,49.7,100.5,37.5,115.3,37.7z"/>
	<path fill="#ADB5BD" d="M88.2,125.7c0,0-9.2,4.4-15.6,6.3c-6.5,1.9-13,5.4-17.7,19.6c-3.5,10.6-5.3,30.6-6,39.9
		c-0.2,3,1.6,5.8,4.4,6.7l9.2,3.2c34.2,11.8,71.1,12.3,105.6,1.6l13-4c4.1-1.1,6.8-5,6.3-9.3l-1.3-12.9c-0.9-8.5-2.6-17-5.1-25.2
		l-0.8-2.7c0,0-2.7-12.4-17.1-16.9c-12.3-3.9-15.4-6.3-15.4-6.3s-8.6,13.3-29.7,13.3C96.8,139,88.2,125.7,88.2,125.7z"/>
</g>
</svg>
