<?xml version="1.0" encoding="utf-8"?>
<!-- Generator: Adobe Illustrator 18.1.1, SVG Export Plug-In . SVG Version: 6.00 Build 0)  -->
<svg version="1.1" id="Layer_1" xmlns="http://www.w3.org/2000/svg" xmlns:xlink="http://www.w3.org/1999/xlink" x="0px" y="0px"
	 viewBox="0 0 120 120" enable-background="new 0 0 120 120" xml:space="preserve">
<g>
	<path fill="none" stroke="#343A40" stroke-width="11" stroke-linecap="round" stroke-miterlimit="10" d="M45.5,19H19.7
		c-5.5,0-10,4.5-10,10v68c0,5.5,4.5,10,10,10h74c5.5,0,10-4.5,10-10V71.3"/>
	<path fill="#343A40" d="M111.4,16l-7.1-7.2c-2.6-2.6-6.8-2.7-9.4-0.1L46.1,56.5l0,0l0,0.1L46,56.7l0.1,0.1l-3.7,17.4
		c-0.5,1.8,1.1,3.4,2.9,3l17.2-3.7l48.8-47.9C113.9,22.9,113.9,18.7,111.4,16z"/>
</g>
</svg>
